<svg xmlns="http://www.w3.org/2000/svg" width="26" height="24" viewBox="0 0 26 24" fill="none"><path d="M21.6284 23.6809H13C6.245 23.6809 0.75 18.4405 0.75 11.9996C0.75 5.55873 6.245 0.318359 13 0.318359C19.755 0.318359 25.25 5.55873 25.25 11.9996C25.2475 14.7858 24.214 17.4725 22.3485 19.5421L23.0485 20.2421C23.3299 20.5236 23.5215 20.8822 23.5991 21.2726C23.6766 21.663 23.6367 22.0676 23.4843 22.4353C23.3319 22.803 23.074 23.1173 22.743 23.3384C22.412 23.5594 22.0229 23.6774 21.6249 23.6774L21.6284 23.6809ZM13 2.06836C7.21012 2.06836 2.5 6.52386 2.5 11.9996C2.5 17.4754 7.21012 21.9309 13 21.9309H21.6284C21.6803 21.931 21.7312 21.9157 21.7744 21.8869C21.8177 21.8581 21.8514 21.8172 21.8714 21.7692C21.8913 21.7212 21.8966 21.6684 21.8865 21.6174C21.8764 21.5665 21.8515 21.5196 21.8147 21.4829L20.5022 20.1704C20.4202 20.0883 20.3553 19.9908 20.3113 19.8834C20.2673 19.776 20.2451 19.6609 20.246 19.5449C20.2469 19.4289 20.2709 19.3142 20.3165 19.2075C20.3622 19.1008 20.4286 19.0043 20.5119 18.9235C21.4513 18.0307 22.2003 16.957 22.7138 15.767C23.2273 14.5771 23.4948 13.2956 23.5 11.9996C23.5 6.52386 18.7899 2.06836 13 2.06836Z" fill="black"></path><path d="M14.3125 17.25H11.6875C11.4554 17.25 11.2329 17.1578 11.0688 16.9937C10.9047 16.8296 10.8125 16.6071 10.8125 16.375C10.8125 16.1429 10.9047 15.9204 11.0688 15.7563C11.2329 15.5922 11.4554 15.5 11.6875 15.5H14.3125C14.5446 15.5 14.7671 15.5922 14.9312 15.7563C15.0953 15.9204 15.1875 16.1429 15.1875 16.375C15.1875 16.6071 15.0953 16.8296 14.9312 16.9937C14.7671 17.1578 14.5446 17.25 14.3125 17.25Z" fill="black"></path><path d="M13 17.25C12.7679 17.25 12.5453 17.1578 12.3812 16.9937C12.2171 16.8296 12.125 16.6071 12.125 16.375V11.0078C11.9582 10.9114 11.8278 10.7628 11.7541 10.5848C11.6804 10.4069 11.6675 10.2096 11.7173 10.0235C11.7672 9.83748 11.877 9.67308 12.0298 9.55583C12.1826 9.43857 12.3699 9.37501 12.5625 9.375H13C13.232 9.375 13.4546 9.46719 13.6187 9.63128C13.7828 9.79538 13.875 10.0179 13.875 10.25V16.375C13.875 16.6071 13.7828 16.8296 13.6187 16.9937C13.4546 17.1578 13.232 17.25 13 17.25Z" fill="black"></path><path d="M13 8.0625C13.7249 8.0625 14.3125 7.47487 14.3125 6.75C14.3125 6.02513 13.7249 5.4375 13 5.4375C12.2751 5.4375 11.6875 6.02513 11.6875 6.75C11.6875 7.47487 12.2751 8.0625 13 8.0625Z" fill="black"></path></svg>