<?xml version="1.0" encoding="UTF-8"?>
<svg id="Layer_1" data-name="Layer 1" xmlns="http://www.w3.org/2000/svg" viewBox="0 0 150 150">
  <defs>
    <style>
      .cls-1 {
        fill: #4782b4;
      }
    </style>
  </defs>
  <path class="cls-1" d="M58.15,35.26h33.26c2.16,0,4.32-1.73,4.32-4.32v-8.21c0-11.66-9.07-20.73-21.17-20.73-11.23,0-20.73,9.07-20.73,20.73v8.21c0,2.59,2.16,4.32,4.32,4.32Z"/>
  <path class="cls-1" d="M111.72,22.73h0s-7.34,0-7.34,0v8.21c0,6.91-5.62,12.96-12.96,12.96h-33.26c-7.34,0-12.96-6.05-12.96-12.96v-8.21h-6.91c-7.34,0-12.96,6.05-12.96,12.96v99.35c0,7.34,5.62,12.96,12.96,12.96h73.43c7.34,0,12.96-5.62,12.96-12.96V35.69c0-6.91-5.62-12.96-12.96-12.96ZM47.79,58.15c-1.73-1.73-1.73-4.32,0-6.05s4.32-1.73,6.05,0l3.89,3.89,3.89-3.89c1.73-1.73,4.32-1.73,6.05,0,1.73,1.73,1.73,4.32,0,6.05l-3.89,3.89,3.46,3.89c1.73,1.73,1.73,4.32,0,6.05-1.73,1.73-4.32,1.73-6.05,0l-3.46-3.89-3.89,3.89c-1.73,1.73-4.32,1.73-6.05,0-1.73-1.73-1.73-4.32,0-6.05l3.89-3.89-3.89-3.89ZM40.44,96.17c0-7.34,5.62-12.96,12.96-12.96s12.96,5.62,12.96,12.96-5.62,12.96-12.96,12.96-12.96-5.62-12.96-12.96ZM96.6,135.47c-7.34,0-12.96-6.05-12.96-12.96,0-7.34,5.62-12.96,12.96-12.96s12.96,5.62,12.96,12.96c0,6.91-5.62,12.96-12.96,12.96ZM110.42,71.54c-1.73,1.3-4.75,1.3-6.05-.86l-4.32-6.05c-6.48,42.33-35.85,58.31-45.79,63.93-3.46,2.16-3.46,2.59-5.18,2.59-1.3,0-2.59-.86-3.46-1.73-1.3-2.16-.86-4.75,1.3-6.05.86-.43,2.16-1.3,3.46-2.16,9.93-5.62,35.85-19.87,41.47-58.31l-6.48,5.18c-1.73,1.3-4.75.86-6.05-.86-1.3-1.73-1.3-4.75.86-6.05l14.69-11.23c1.73-1.3,4.75-.86,6.05.86l11.23,14.69c.86,1.73.43,4.32-1.73,6.05Z"/>
  <circle class="cls-1" cx="96.6" cy="122.51" r="4.32"/>
  <circle class="cls-1" cx="53.4" cy="96.17" r="4.32"/>
</svg>