<?xml version="1.0" encoding="UTF-8"?>
<svg id="Layer_1" data-name="Layer 1" xmlns="http://www.w3.org/2000/svg" viewBox="0 0 150 150">
  <defs>
    <style>
      .cls-1 {
        fill: #4782b4;
      }
    </style>
  </defs>
  <path class="cls-1" d="M128.45,78.7c1.48,3.76,5.13,6.44,9.42,6.44,5.59,0,10.14-4.55,10.14-10.14s-4.55-10.14-10.14-10.14c-4.28,0-7.93,2.68-9.42,6.44h-22.3v-16.53h12.91c1.47,0,2.8-.87,3.39-2.22l2.61-6.01h3.39c1.48,3.76,5.13,6.44,9.42,6.44,5.59,0,10.14-4.55,10.14-10.14s-4.55-10.14-10.14-10.14c-4.28,0-7.93,2.68-9.42,6.44h-5.81c-1.47,0-2.8.87-3.39,2.22l-2.61,6.01h-10.49v-3.61c0-2.04-1.65-3.69-3.69-3.69h-9.41v-14.98l7.56-3.17c1.84,1.89,4.41,3.08,7.25,3.08,5.59,0,10.14-4.55,10.14-10.14s-4.55-10.14-10.14-10.14-10.14,4.55-10.14,10.14c0,.08.02.16.02.24l-9.82,4.12c-1.37.58-2.26,1.92-2.26,3.41v17.43h-5.16c-2.04,0-3.69,1.65-3.69,3.69s1.65,3.69,3.69,3.69h18.26v55.06h-27.55v-3.8h18.15c2.04,0,3.69-1.65,3.69-3.69v-40.07c0-2.04-1.65-3.69-3.69-3.69h-18.15v-27.98c0-11.62-9.55-18.54-18.81-18.54-4.85,0-9.31,1.8-12.56,5.1-2.17,2.19-4.68,5.96-5.39,11.97-7.95,1.28-14.72,5.79-18.54,12.46-3.67,6.45-4.11,14.03-1.35,21.3-7.21,4.04-11.89,10.98-12.48,18.86-.59,7.83,2.88,15.04,9.36,19.87-2.44,7.39-.91,13.27.96,17.04,2.66,5.37,7.56,9.55,13.42,11.65.62,8.47,6.33,16.5,14.65,20.21,3.05,1.38,6.16,2.04,9.16,2.04,5.47,0,10.66-2.22,14.8-6.48,4.38-4.53,6.8-10.81,6.8-17.65v-11.2h14.45v17.37c0,1.49.89,2.83,2.26,3.41l9.82,4.12c0,.08-.02.16-.02.24,0,5.59,4.55,10.14,10.14,10.14s10.14-4.55,10.14-10.14-4.55-10.14-10.14-10.14c-2.85,0-5.41,1.19-7.26,3.08l-7.55-3.17v-14.91h9.41c2.04,0,3.69-1.65,3.69-3.69v-3.61h10.49l2.61,6.01c.59,1.35,1.92,2.22,3.39,2.22h5.81c1.48,3.76,5.13,6.44,9.42,6.44,5.59,0,10.14-4.55,10.14-10.14s-4.55-10.14-10.14-10.14c-4.28,0-7.93,2.68-9.42,6.44h-3.39l-2.61-6.01c-.59-1.35-1.92-2.22-3.39-2.22h-12.91v-16.53h22.3ZM137.86,72.25c1.52,0,2.75,1.23,2.75,2.75s-1.23,2.75-2.75,2.75-2.75-1.23-2.75-2.75,1.23-2.75,2.75-2.75ZM137.86,40.11c1.52,0,2.75,1.23,2.75,2.75s-1.23,2.75-2.75,2.75-2.72-1.22-2.74-2.72c0-.01,0-.02,0-.03s0-.02,0-.03c.02-1.5,1.24-2.72,2.74-2.72ZM107.85,12.14c1.52,0,2.75,1.23,2.75,2.75s-1.23,2.75-2.75,2.75-2.75-1.23-2.75-2.75,1.23-2.75,2.75-2.75ZM85.66,58.66v32.69h-14.46v-32.69h14.46ZM45.72,27.43c1.33-1.55,3.67-1.75,5.22-.42,3.23,2.71,5.2,6.13,5.91,10.17.34,1.99-1.01,3.91-3,4.26-.22.05-.44.05-.64.05-1.77,0-3.32-1.26-3.64-3.05-.39-2.29-1.5-4.19-3.4-5.79-1.55-1.33-1.75-3.67-.44-5.22ZM34.25,60.75c.3-.3,7.49-7.39,17.6-6.92,2.02.07,3.59,1.8,3.52,3.84-.1,2.04-1.77,3.62-3.87,3.52-6.8-.32-12.02,4.75-12.06,4.8-.71.71-1.65,1.06-2.59,1.06s-1.9-.37-2.63-1.08c-1.43-1.45-1.43-3.77.02-5.22ZM38.87,94.06c-.2.17-.42.34-.62.54-3.52,3.2-7.78,4.88-12.38,4.88-.37,0-.74-.02-1.11-.02-2.04-.12-3.59-1.87-3.47-3.91.1-2.02,1.85-3.57,3.89-3.47,3.1.17,5.74-.79,8.08-2.93.96-.86,1.92-1.65,2.86-2.34l.52-.37c8.69-6.28,16.1-5.66,16.47-5.61,2.02.2,3.5,1.99,3.3,4.04-.2,2.02-2.02,3.52-4.04,3.3-.15,0-2.76-.15-6.55,1.48,3.4,2.29,6.99,5.42,7.83,8.81.49,1.97-.74,3.96-2.71,4.46-.3.07-.59.1-.89.1-1.65,0-3.18-1.13-3.57-2.81-.34-1.23-3.77-3.96-7.61-6.13ZM55.2,125.43h-.05c-6.92-.07-11.65-4.28-12.16-4.75-1.5-1.38-1.6-3.72-.22-5.22s3.72-1.6,5.22-.22c.1.1,3.15,2.76,7.26,2.81,2.04.02,3.67,1.7,3.64,3.74-.02,2.02-1.67,3.64-3.69,3.64ZM107.85,132.31c1.52,0,2.75,1.23,2.75,2.75s-1.23,2.75-2.75,2.75-2.75-1.23-2.75-2.75,1.23-2.75,2.75-2.75ZM137.86,104.39c1.52,0,2.75,1.23,2.75,2.75s-1.23,2.75-2.75,2.75-2.72-1.22-2.74-2.72c0-.01,0-.02,0-.03s0-.02,0-.03c.02-1.5,1.24-2.72,2.74-2.72Z"/>
</svg>