<?xml version="1.0" encoding="UTF-8"?>
<svg id="Layer_1" data-name="Layer 1" xmlns="http://www.w3.org/2000/svg" viewBox="0 0 150 150">
  <defs>
    <style>
      .cls-1, .cls-2 {
        fill: #4782b4;
      }

      .cls-2 {
        fill-rule: evenodd;
      }
    </style>
  </defs>
  <path class="cls-1" d="M85.8,12.66c0,5.89-4.77,10.66-10.66,10.66s-10.66-4.77-10.66-10.66,4.77-10.66,10.66-10.66,10.66,4.77,10.66,10.66Z"/>
  <path class="cls-2" d="M75.15,23.32h-18.25c-16.02,0-29.61,10.4-34.38,24.82h-.66c-10.97,0-19.86,8.89-19.86,19.86s8.89,19.86,19.86,19.86h.47c4.6,14.72,18.33,25.4,34.57,25.4h36.5c16.23,0,29.97-10.68,34.57-25.4h.18c10.97,0,19.86-8.89,19.86-19.86s-8.89-19.86-19.86-19.86h-.37c-4.77-14.42-18.36-24.82-34.38-24.82h-18.25ZM110.53,65.66c0,7.49-6.07,13.55-13.56,13.55s-13.55-6.07-13.55-13.55,6.07-13.56,13.55-13.56,13.56,6.07,13.56,13.56h0ZM52.93,79.21c7.49,0,13.56-6.07,13.56-13.55s-6.07-13.56-13.56-13.56-13.55,6.07-13.55,13.56,6.07,13.55,13.55,13.55Z"/>
  <path class="cls-1" d="M28.26,148c8.75-16.99,26.46-28.62,46.89-28.62s38.14,11.62,46.89,28.62H28.26Z"/>
</svg>