<?xml version="1.0" encoding="UTF-8"?>
<svg id="Layer_1" data-name="Layer 1" xmlns="http://www.w3.org/2000/svg" viewBox="0 0 150 150">
  <defs>
    <style>
      .cls-1 {
        fill: #4782b4;
      }
    </style>
  </defs>
  <path class="cls-1" d="M111.25,32.03h24.72v-2.03c0-2.76-1.09-5.42-3.02-7.4l-17.52-17.52c-1.98-1.98-4.64-3.08-7.4-3.08h-1.98v24.82c0,2.87,2.29,5.21,5.21,5.21Z"/>
  <path class="cls-1" d="M111.25,42.46c-8.66,0-15.65-7.04-15.65-15.64V2h-53.03c-5.74,0-10.43,4.69-10.43,10.43v75.32c1.69-4.21,5.76-7.04,10.32-7.04s8.92,2.97,10.51,7.39l2.62,7.27c1.86,5.17,5.9,9.21,11.06,11.06l7.28,2.62c4.4,1.57,7.38,5.8,7.38,10.51,0,2.5-.88,4.83-2.34,6.74h46.54c5.74,0,10.43-4.69,10.43-10.43V42.46h-24.72Z"/>
  <path class="cls-1" d="M63.13,116.24c-8.08-2.91-14.43-9.27-17.34-17.34l-2.62-7.27c-.23-.66-1.17-.66-1.4,0l-2.62,7.27c-2.91,8.08-9.27,14.43-17.34,17.34l-7.27,2.62c-.66.23-.66,1.17,0,1.4l7.27,2.62c8.08,2.91,14.43,9.27,17.34,17.34l2.62,7.27c.23.66,1.17.66,1.4,0l2.62-7.27c2.91-8.08,9.27-14.43,17.34-17.34l7.27-2.62c.66-.23.66-1.17,0-1.4l-7.27-2.62Z"/>
</svg>