<svg xmlns="http://www.w3.org/2000/svg" width="20" height="20" viewBox="0 0 20 20" fill="none"><path d="M15.554 3.33348C15.2206 3.33348 14.9984 3.44459 14.7762 3.66681L3.66536 14.7777C3.22092 15.2221 3.22092 15.8887 3.66536 16.3332C4.10979 16.7776 4.77644 16.7776 5.22088 16.3332L16.3317 5.22233C16.7762 4.77789 16.7762 4.11124 16.3317 3.66681C16.1095 3.44459 15.8873 3.33348 15.554 3.33348Z" fill="white"></path><path d="M15.5562 3.33324H5.5564C4.88975 3.33324 4.44531 3.77767 4.44531 4.44432C4.44531 5.11098 4.88975 5.55541 5.5564 5.55541H14.4451V14.4441C14.4451 15.1107 14.8895 15.5552 15.5562 15.5552C16.2228 15.5552 16.6672 15.1107 16.6672 14.4441V4.44432C16.6672 3.77767 16.2228 3.33324 15.5562 3.33324Z" fill="white"></path></svg>