<svg xmlns="http://www.w3.org/2000/svg" width="20" height="20" viewBox="0 0 20 20" fill="none"><path d="M18.0054 0.200195H1.8135C1.58144 0.200195 1.35888 0.292382 1.19478 0.456477C1.03069 0.620571 0.938501 0.843131 0.938501 1.0752C0.938501 1.30726 1.03069 1.52982 1.19478 1.69391C1.35888 1.85801 1.58144 1.9502 1.8135 1.9502H16.2895L0.481711 17.9121C0.394919 17.992 0.325175 18.0886 0.276671 18.1961C0.228166 18.3036 0.201903 18.4199 0.19946 18.5378C0.197017 18.6557 0.218444 18.7729 0.262453 18.8824C0.306462 18.9918 0.372145 19.0912 0.455554 19.1746C0.538962 19.258 0.638375 19.3237 0.747815 19.3677C0.857256 19.4117 0.974464 19.4332 1.0924 19.4307C1.21033 19.4283 1.32655 19.402 1.43407 19.3535C1.5416 19.305 1.6382 19.2353 1.71809 19.1485L17.5267 3.18657V17.6634C17.5267 17.8955 17.6189 18.1181 17.783 18.2822C17.9471 18.4463 18.1697 18.5384 18.4017 18.5384C18.6338 18.5384 18.8564 18.4463 19.0205 18.2822C19.1845 18.1181 19.2767 17.8955 19.2767 17.6634V1.47245C19.2763 1.13532 19.1422 0.812116 18.9039 0.573648C18.6656 0.335181 18.3425 0.20089 18.0054 0.200195Z" fill="white"></path></svg>