<svg xmlns="http://www.w3.org/2000/svg" width="8" height="12" viewBox="0 0 8 12" fill="none"><path d="M5.15641 5.99746L0.667243 10.4868C0.543633 10.6101 0.475633 10.775 0.475633 10.9508C0.475633 11.1267 0.543633 11.2915 0.667243 11.415L1.06061 11.8082C1.18402 11.9319 1.349 12 1.5248 12C1.70061 12 1.86539 11.9319 1.9889 11.8082L7.33397 6.46322C7.45797 6.33932 7.52588 6.17376 7.52539 5.99776C7.52588 5.82098 7.45807 5.65561 7.33397 5.53161L1.99388 0.191808C1.87036 0.0681 1.70558 1.90735e-06 1.52968 1.90735e-06C1.35388 1.90735e-06 1.1891 0.0681 1.06549 0.191808L0.672218 0.584978C0.416316 0.84088 0.416316 1.25747 0.672218 1.51327L5.15641 5.99746Z" fill="#7D3CF3"></path></svg>