<svg xmlns="http://www.w3.org/2000/svg" width="52" height="52" viewBox="0 0 52 52" fill="none"><path d="M48.8 29.1999V40.3999C48.8 44.8182 45.2183 48.3999 40.8 48.3999H12C7.58175 48.3999 4.00005 44.8182 4.00005 40.3999V11.5999C4.00005 7.1816 7.58175 3.5999 12 3.5999H21.6V0.399902H12C5.81445 0.399902 0.800049 5.4143 0.800049 11.5999V40.3999C0.800049 46.5855 5.81445 51.5999 12 51.5999H40.8C46.9856 51.5999 52 46.5855 52 40.3999V29.1999H48.8Z" fill="black"></path><path d="M18.4 42H21.6V29.2C21.6 16.624 32.352 16.4 32.8 16.4H43.344L34.88 24.864L37.136 27.12L48.336 15.92C48.9564 15.2959 48.9564 14.2881 48.336 13.664L37.136 2.46396L34.864 4.73596L43.344 13.2H32.8C32.656 13.2 18.4 13.376 18.4 29.2V42Z" fill="black"></path></svg>