<svg xmlns="http://www.w3.org/2000/svg" width="80" height="80" viewBox="0 0 80 80" fill="none"><mask id="mask0_4_65" style="mask-type:luminance" maskUnits="userSpaceOnUse" x="0" y="0" width="80" height="80"><path d="M77.9998 78V2.00024H2V78H77.9998Z" fill="white" stroke="white" stroke-width="4"></path></mask><g mask="url(#mask0_4_65)"><path d="M3.91559 76.0844C1.81997 73.9888 1.81997 70.5911 3.91559 68.4957L17.6444 54.7666C19.7401 52.671 23.1377 52.671 25.2333 54.7666C27.329 56.8623 27.329 60.2599 25.2333 62.3555L11.5043 76.0844C9.40885 78.18 6.0112 78.18 3.91559 76.0844Z" stroke="black" stroke-width="4" stroke-miterlimit="10" stroke-linecap="round"></path><path d="M25.2332 54.7668L33.8808 46.1193" stroke="black" stroke-width="4" stroke-miterlimit="10"></path><path d="M70.1453 46.1193C80.1595 36.1051 80.1595 19.8689 70.1453 9.85476C60.1311 -0.159586 43.8949 -0.159586 33.8808 9.85476C23.8664 19.8689 23.8664 36.1051 33.8808 46.1193C43.8949 56.1335 60.1311 56.1335 70.1453 46.1193Z" stroke="black" stroke-width="4" stroke-miterlimit="10" stroke-linecap="round"></path><path d="M40.1379 37.9873V30.4865" stroke="black" stroke-width="4" stroke-miterlimit="10" stroke-linecap="round"></path><path d="M47.9504 37.9873V22.6741" stroke="black" stroke-width="4" stroke-miterlimit="10" stroke-linecap="round"></path><path d="M55.7629 37.9873V25.7991" stroke="black" stroke-width="4" stroke-miterlimit="10" stroke-linecap="round"></path><path d="M63.5754 37.9873V17.9866" stroke="black" stroke-width="4" stroke-miterlimit="10" stroke-linecap="round"></path></g></svg>