<svg xmlns="http://www.w3.org/2000/svg" width="49" height="52" viewBox="0 0 49 52" fill="none"><path d="M45.1222 34.422V14.9876C46.8092 14.436 48.0298 12.8504 48.0298 10.9789C48.0298 8.64882 46.1399 6.75964 43.8106 6.75964C42.3408 6.75964 41.0485 7.51176 40.2933 8.65147L28.1142 4.60929C28.1265 4.47954 28.1469 4.35194 28.1469 4.21934C28.1469 1.88928 26.2569 0 23.9271 0C21.5965 0 19.7079 1.88928 19.7079 4.21934C19.7079 4.35636 19.7157 4.49112 19.7283 4.62401L7.7321 8.64156C6.97576 7.50695 5.685 6.75905 4.21924 6.75905C1.88918 6.75905 0 8.64823 0 10.9783C0 13.0039 1.42778 14.6937 3.33119 15.102V34.3071C1.42778 34.7153 0 36.405 0 38.4309C0 40.7607 1.88918 42.6503 4.21924 42.6503C5.9766 42.6503 7.4827 41.5748 8.11675 40.0464L20.2589 45.6955C19.8965 46.3306 19.7066 47.0495 19.7078 47.7808C19.7078 50.1111 21.5964 52 23.927 52C26.2568 52 28.1468 50.1111 28.1468 47.7808C28.1468 47.0256 27.9405 46.3227 27.5921 45.7093L39.9078 40.0314C40.5378 41.5679 42.0473 42.6508 43.8113 42.6508C46.1412 42.6508 48.0303 40.7618 48.0303 38.4315C48.0298 36.5586 46.8092 34.9742 45.1222 34.422ZM5.53169 34.422V14.9876C6.28568 14.741 6.9366 14.2802 7.43726 13.6887L19.8031 19.4413C19.7402 19.7328 19.7083 20.0301 19.708 20.3283C19.708 22.3538 21.1358 24.0437 23.0392 24.4519V29.5585L6.70782 35.0269C6.3499 34.7649 5.95302 34.5608 5.53169 34.422ZM8.12784 36.8718L23.0387 31.8785V43.6571C22.6535 43.7393 22.2899 43.8767 21.9514 44.0561L8.38332 37.7439C8.33307 37.4384 8.23963 37.1505 8.12784 36.8718ZM25.2394 43.7717V32.0156L39.8905 36.8788C39.7812 37.1525 39.7013 37.437 39.652 37.7275L25.9086 44.0627C25.6947 43.9495 25.4723 43.8478 25.2394 43.7717ZM25.2394 29.6976V24.337C26.9264 23.7854 28.1469 22.1997 28.1469 20.3283C28.1469 20.0285 28.1138 19.7365 28.0546 19.4545L40.5747 13.682C41.1667 14.39 41.9862 14.9017 42.9228 15.1026V34.3079C42.3312 34.434 41.7854 34.6865 41.3138 35.0324L25.2394 29.6976ZM39.6037 10.7408C39.599 10.8206 39.5921 10.8987 39.5921 10.979C39.5921 11.2199 39.6137 11.4551 39.6521 11.6853L27.0483 17.4961C26.5615 16.9598 25.9424 16.5491 25.2394 16.3191V8.22864C26.0992 7.94695 26.8348 7.39477 27.3531 6.67484L39.6037 10.7408ZM20.5059 6.68416C21.107 7.51539 22.0012 8.12088 23.0386 8.34348V16.2046C22.1653 16.3915 21.3961 16.8502 20.815 17.4855L8.37586 11.6977C8.41532 11.4633 8.43927 11.224 8.43927 10.9783C8.43927 10.8943 8.43151 10.8115 8.42631 10.7286L20.5059 6.68416Z" fill="black"></path></svg>