<svg xmlns="http://www.w3.org/2000/svg" width="54" height="64" viewBox="0 0 54 64" fill="none"><path d="M51.6911 26.5683C51.6911 12.9158 40.6107 1.85134 26.9522 1.87724C13.2828 1.90302 2.30859 12.8993 2.30884 26.5686C2.30896 35.6789 7.24345 43.6363 14.5854 47.915C18.0412 49.9291 20.1387 53.6554 20.1387 57.6553V62.1228H33.8614V57.6556C33.8614 53.612 36.0364 49.9066 39.5198 47.8534C46.8037 43.5601 51.6911 35.6352 51.6911 26.5683Z" stroke="black" stroke-width="3.5" stroke-miterlimit="10" stroke-linecap="round" stroke-linejoin="round"></path><path d="M27.0053 37.9508C27.0053 40.2033 28.8313 42.0294 31.0839 42.0294C33.2235 42.0294 34.9771 40.3816 35.1476 38.2861C35.7269 38.5869 36.3702 38.7437 37.0229 38.7431C39.2754 38.7431 41.1015 36.9171 41.1015 34.6645C41.1015 33.4625 40.5814 32.3822 39.7541 31.6358C41.6349 30.6451 42.9177 28.6721 42.9177 26.3987C42.9177 24.1252 41.6348 22.1524 39.7541 21.1617C40.5813 20.4152 41.1015 19.3349 41.1015 18.133C41.1015 15.8804 39.2756 14.0544 37.0229 14.0544C36.3702 14.0537 35.7269 14.2105 35.1476 14.5114C34.9771 12.4159 33.2235 10.7681 31.0839 10.7681C28.8314 10.7681 27.0053 12.5942 27.0053 14.8467M19.3057 53.3537H34.6942M11.0822 26.3985C11.0822 24.125 12.365 22.1522 14.2457 21.1614C13.4185 20.4149 12.8983 19.3347 12.8983 18.1328C12.8983 15.8801 14.7244 14.0541 16.9769 14.0541C17.6296 14.0535 18.2729 14.2103 18.8522 14.5112C19.0228 12.4156 20.7763 10.7678 22.9159 10.7678C25.1684 10.7678 26.9945 12.5939 26.9945 14.8464V37.9509C26.9945 40.2034 25.1684 42.0295 22.9159 42.0295C20.7763 42.0295 19.0228 40.3817 18.8522 38.2862C18.2729 38.5871 17.6296 38.7438 16.9769 38.7432C14.7244 38.7432 12.8983 36.9172 12.8983 34.6646C12.8983 33.4626 13.4184 32.3823 14.2457 31.636C12.365 30.6448 11.0822 28.672 11.0822 26.3985Z" stroke="black" stroke-width="3.5" stroke-miterlimit="10" stroke-linecap="round" stroke-linejoin="round"></path></svg>