<svg xmlns="http://www.w3.org/2000/svg" width="10" height="10" viewBox="0 0 10 10" fill="none"><path d="M9.24304 9.24304C9.50339 8.98269 9.50339 8.56058 9.24304 8.30023L5.94367 5.00086L9.24395 1.70057C9.5043 1.44022 9.5043 1.01811 9.24395 0.757764C8.9836 0.497414 8.56149 0.497414 8.30114 0.757763L5.00086 4.05805L1.70057 0.757762C1.44022 0.497413 1.01811 0.497413 0.757762 0.757762C0.497413 1.01811 0.497413 1.44022 0.757762 1.70057L4.05805 5.00086L0.758667 8.30024C0.498318 8.56058 0.498318 8.9827 0.758668 9.24304C1.01902 9.50339 1.44113 9.5034 1.70148 9.24305L5.00086 5.94367L8.30023 9.24304C8.56058 9.50339 8.98269 9.50339 9.24304 9.24304Z" fill="white"></path></svg>