<svg xmlns="http://www.w3.org/2000/svg" width="60" height="60" viewBox="0 0 60 60" fill="none"><path fill-rule="evenodd" clip-rule="evenodd" d="M30 0C13.4531 0 0 13.4531 0 30C0 46.5469 13.4531 60 30 60C46.5469 60 60 46.5469 60 30C60 13.4531 46.5469 0 30 0Z" fill="#7D3CF3"></path><path fill-rule="evenodd" clip-rule="evenodd" d="M44.5059 19.8857C45.2324 20.6123 45.2324 21.8076 44.5059 22.5342L26.9277 40.1123C26.5645 40.4756 26.084 40.6631 25.6035 40.6631C25.123 40.6631 24.6426 40.4756 24.2793 40.1123L15.4902 31.3232C14.7637 30.5967 14.7637 29.4014 15.4902 28.6748C16.2168 27.9482 17.4121 27.9482 18.1387 28.6748L25.6035 36.1397L41.8574 19.8857C42.584 19.1475 43.7793 19.1475 44.5059 19.8857Z" fill="white"></path></svg>