<svg xmlns="http://www.w3.org/2000/svg" id="Layer_1" data-name="Layer 1" viewBox="0 0 150 150"><defs><style>      .cls-1 {        fill: #4782b4;      }    </style></defs><path class="cls-1" d="M126.29,2.06c-11.78,0-21.37,9.59-21.37,21.37,0,4.35,1.32,8.67,3.56,12.05l-15.64,15.64c-3.91-2.93-8.52-4.88-13.56-5.61v-18.6c4.96-1.77,8.55-6.47,8.55-12.04,0-7.07-5.75-12.82-12.82-12.82s-12.82,5.75-12.82,12.82c0,5.57,3.58,10.26,8.55,12.04v18.6c-5.04.73-9.65,2.68-13.56,5.61l-14.51-14.51c1.5-2.54,2.42-5.47,2.42-8.63,0-9.43-7.67-17.1-17.1-17.1s-17.1,7.67-17.1,17.1,7.67,17.1,17.1,17.1c3.16,0,6.09-.92,8.63-2.42l14.51,14.51c-2.93,3.91-4.88,8.52-5.61,13.56h-18.6c-1.77-4.96-6.47-8.55-12.04-8.55-7.07,0-12.82,5.75-12.82,12.82s5.75,12.82,12.82,12.82c5.57,0,10.26-3.58,12.04-8.55h18.6c1.89,13.05,12.16,23.32,25.21,25.21v9.59c-7.35,1.91-12.82,8.54-12.82,16.49,0,9.43,7.67,17.38,17.1,17.38s17.1-7.95,17.1-17.38c0-7.94-5.47-14.58-12.82-16.49v-9.59c7.57-1.1,14.16-5,18.79-10.66l15.74,12.55c-.21.91-.33,1.85-.33,2.81,0,7.07,5.75,12.82,12.82,12.82s12.82-5.75,12.82-12.82-5.75-12.82-12.82-12.82c-2.98,0-5.68,1.06-7.86,2.77l-15.83-12.62c1.48-3.55,2.32-7.43,2.32-11.51,0-6.71-2.3-12.84-6.04-17.83l15.64-15.64c3.38,2.24,7.42,3.56,11.77,3.56,11.78,0,21.66-9.87,21.66-21.66s-9.87-21.37-21.66-21.37Z"></path></svg>