<svg xmlns="http://www.w3.org/2000/svg" id="Layer_1" data-name="Layer 1" viewBox="0 0 150 150"><defs><style>      .cls-1 {        fill: #4782b4;      }    </style></defs><path class="cls-1" d="M88.52,31.55h0V2.34H26.46c-3.34,0-6.04,2.7-6.04,6.04v133.52c0,3.34,2.7,6.04,6.04,6.04h96.66c3.34,0,6.04-2.7,6.04-6.04V42.84h-29.36c-6.23,0-11.29-5.07-11.29-11.29ZM64.12,116.53l-12.85,12.85c-.83.83-1.92,1.25-3.02,1.25s-2.18-.42-3.02-1.25l-5.34-5.34c-1.67-1.67-1.67-4.37,0-6.03,1.67-1.67,4.37-1.67,6.03,0l2.32,2.32,9.84-9.84c1.67-1.67,4.37-1.67,6.03,0,1.67,1.67,1.67,4.37,0,6.03ZM64.12,88.09l-12.85,12.85c-.83.83-1.92,1.25-3.02,1.25s-2.18-.42-3.02-1.25l-5.34-5.34c-1.67-1.67-1.67-4.37,0-6.03,1.67-1.67,4.37-1.67,6.03,0l2.32,2.32,9.84-9.84c1.67-1.67,4.37-1.67,6.03,0,1.67,1.67,1.67,4.37,0,6.03ZM64.12,57.49h0s-12.85,12.85-12.85,12.85c-.83.83-1.92,1.25-3.02,1.25s-2.18-.42-3.02-1.25l-5.34-5.34c-1.67-1.67-1.67-4.37,0-6.03,1.67-1.67,4.37-1.67,6.03,0l2.32,2.32,9.84-9.84c1.67-1.67,4.37-1.67,6.03,0,1.67,1.67,1.67,4.37,0,6.03ZM106.67,124.21h-27.3c-2.36,0-4.27-1.91-4.27-4.27s1.91-4.27,4.27-4.27h27.3c2.36,0,4.27,1.91,4.27,4.27s-1.91,4.27-4.27,4.27ZM75.11,91.51c0-2.36,1.91-4.27,4.27-4.27h27.18c2.36,0,4.27,1.91,4.27,4.27s-1.91,4.27-4.27,4.27h-27.18c-2.36,0-4.27-1.91-4.27-4.27ZM110.81,63.07h0c0,2.36-1.91,4.27-4.27,4.27h-27.18c-2.36,0-4.27-1.91-4.27-4.27s1.91-4.27,4.27-4.27h27.18c2.36,0,4.27,1.91,4.27,4.27Z"></path><path class="cls-1" d="M99.81,34.31h29.77L97.05,2.06v29.49c0,1.52,1.24,2.76,2.76,2.76Z"></path></svg>