<svg xmlns="http://www.w3.org/2000/svg" width="33" height="25" viewBox="0 0 33 25" fill="none"><path d="M30.625 18.75V0H2.375V18.75H0.5V19.6875C0.5 22.2722 2.60281 24.375 5.1875 24.375H27.8125C30.3972 24.375 32.5 22.2722 32.5 19.6875V18.75H30.625ZM4.25 1.875H28.75V18.75H4.25V1.875ZM27.8125 22.5H5.1875C3.96531 22.5 2.92262 21.7162 2.53562 20.625H30.4644C30.0774 21.7162 29.0347 22.5 27.8125 22.5Z" fill="black"></path><path d="M8.0625 3.75V9.375H24.9375V3.75H8.0625ZM23.0625 7.5H9.9375V5.625H23.0625V7.5ZM8.0625 16.875H13.6875V11.25H8.0625V16.875ZM9.9375 13.125H11.8125V15H9.9375V13.125ZM15.5625 11.25H24.9375V13.125H15.5625V11.25ZM15.5625 15H24.9375V16.875H15.5625V15Z" fill="black"></path></svg>