<svg xmlns="http://www.w3.org/2000/svg" width="52" height="52" viewBox="0 0 52 52" fill="none"><path d="M50.1714 42.457H26.1403C25.3225 39.3114 22.4846 36.9713 19.0857 36.9713C15.6868 36.9713 12.8489 39.3114 12.0311 42.457H2.62856C1.61782 42.457 0.799988 43.2758 0.799988 44.2856C0.799988 45.2954 1.61782 46.1142 2.62856 46.1142H12.0311C12.8489 49.2598 15.6868 51.5999 19.0857 51.5999C22.4846 51.5999 25.3225 49.2598 26.1403 46.1142H50.1714C51.1822 46.1142 52 45.2954 52 44.2856C52 43.2758 51.1822 42.457 50.1714 42.457ZM19.0857 47.9428C17.0697 47.9428 15.4286 46.3025 15.4286 44.2856C15.4286 42.2687 17.0697 40.6285 19.0857 40.6285C21.1017 40.6285 22.7428 42.2687 22.7428 44.2856C22.7428 46.3025 21.1017 47.9428 19.0857 47.9428ZM50.1714 24.1713H40.7689C39.9511 21.0257 37.1131 18.6856 33.7143 18.6856C30.3154 18.6856 27.4775 21.0257 26.6596 24.1713H2.62856C1.61782 24.1713 0.799988 24.9901 0.799988 25.9999C0.799988 27.0097 1.61782 27.8285 2.62856 27.8285H26.6596C27.4775 30.9741 30.3154 33.3142 33.7143 33.3142C37.1131 33.3142 39.9511 30.9741 40.7689 27.8285H50.1714C51.1822 27.8285 52 27.0097 52 25.9999C52 24.9901 51.1822 24.1713 50.1714 24.1713ZM33.7143 29.657C31.6983 29.657 30.0571 28.0168 30.0571 25.9999C30.0571 23.983 31.6983 22.3428 33.7143 22.3428C35.7303 22.3428 37.3714 23.983 37.3714 25.9999C37.3714 28.0168 35.7303 29.657 33.7143 29.657ZM2.62856 9.54276H12.0311C12.8489 12.6884 15.6868 15.0285 19.0857 15.0285C22.4846 15.0285 25.3225 12.6884 26.1403 9.54276H50.1714C51.1822 9.54276 52 8.72402 52 7.71419C52 6.70436 51.1822 5.88562 50.1714 5.88562H26.1403C25.3225 2.74002 22.4846 0.399902 19.0857 0.399902C15.6868 0.399902 12.8489 2.74002 12.0311 5.88562H2.62856C1.61782 5.88562 0.799988 6.70436 0.799988 7.71419C0.799988 8.72402 1.61782 9.54276 2.62856 9.54276ZM19.0857 4.05705C21.1017 4.05705 22.7428 5.69727 22.7428 7.71419C22.7428 9.7311 21.1017 11.3713 19.0857 11.3713C17.0697 11.3713 15.4286 9.7311 15.4286 7.71419C15.4286 5.69727 17.0697 4.05705 19.0857 4.05705Z" fill="black"></path></svg>