<svg xmlns="http://www.w3.org/2000/svg" width="26" height="24" viewBox="0 0 26 24" fill="none"><path d="M8.76463 5.71614H23.3582L15.3863 11.9763C15.2263 12.0987 15.0348 12.1733 14.8341 12.1913C14.6323 12.1729 14.4398 12.0984 14.2781 11.9763L8.58107 7.50098C8.52079 7.45216 8.45172 7.41531 8.3776 7.39241C8.65404 7.00503 8.79886 6.53917 8.79076 6.06334C8.78837 5.94722 8.77964 5.83131 8.76463 5.71614ZM5.05338 1.69005C5.07174 1.69316 5.10192 1.70467 5.16756 1.73516C5.29729 1.79676 5.50356 1.95543 5.70547 2.17663C6.11209 2.61965 6.5184 3.29072 6.72934 3.73374C6.73587 3.74681 6.74271 3.76112 6.74894 3.77574C7.34751 4.80272 7.60574 5.58827 7.61352 6.08107C7.62192 6.57605 7.48907 6.78916 7.06938 7.03027L5.98672 7.65436C5.28143 8.06036 4.94823 8.78805 4.86547 9.4669C4.7824 10.1461 4.90467 10.8059 5.20676 11.3277L7.8792 15.9337C8.18192 16.4551 8.69867 16.8913 9.33054 17.1591C9.96303 17.4276 10.7629 17.5035 11.4682 17.0985L12.5508 16.4756C12.9702 16.2351 13.2238 16.2301 13.6497 16.4834C14.0768 16.7373 14.6316 17.3505 15.2276 18.3781C15.236 18.3933 15.2441 18.4061 15.2538 18.4207C15.5332 18.8236 15.9136 19.5071 16.0972 20.0795C16.1884 20.3639 16.2241 20.6209 16.2126 20.763C16.1999 20.9058 16.1968 20.8912 16.1591 20.9136L15.3353 21.3859C13.2658 22.2834 11.3689 22.0809 9.67369 21.2017C7.97534 20.3188 6.49911 18.7243 5.46996 16.8524C5.46654 16.8486 5.46498 16.844 5.46218 16.8415L3.20787 12.9563C3.20414 12.9526 3.20258 12.9492 3.19947 12.9442C2.08414 11.1211 1.43423 9.05125 1.51574 7.14694C1.59725 5.24543 2.3688 3.51192 4.18631 2.17818L5.01045 1.70747C5.02943 1.69658 5.03565 1.68818 5.05338 1.69005ZM5.06178 0.532404C4.84369 0.528982 4.62125 0.574715 4.4212 0.69076L3.54978 1.19196C3.53018 1.20316 3.51214 1.21467 3.4944 1.22587C1.39783 2.76027 0.432449 4.89636 0.338182 7.09809C0.243915 9.2989 0.978759 11.5703 2.19271 13.5561L4.43956 17.4279L4.43427 17.4164C5.55583 19.4545 7.16303 21.2225 9.12707 22.2411C11.092 23.2613 13.4328 23.4977 15.8172 22.458C15.8368 22.4496 15.8567 22.4402 15.8744 22.4293L16.7471 21.9281C17.1506 21.6985 17.3535 21.2518 17.3864 20.8617C17.4204 20.4728 17.341 20.0941 17.2206 19.7211C16.9848 18.9835 16.5735 18.267 16.2338 17.7754C15.592 16.6713 14.9722 15.905 14.256 15.4766C13.9101 15.2686 13.5146 15.1572 13.1109 15.1541C12.7073 15.151 12.3101 15.2562 11.961 15.4589L10.8783 16.083C10.5585 16.2672 10.1845 16.2457 9.79098 16.0793C9.39929 15.9128 9.03654 15.5799 8.90183 15.3466L6.22938 10.7409C6.09436 10.5063 5.98392 10.0278 6.03618 9.60596C6.08658 9.18534 6.25738 8.85587 6.57752 8.67138L7.62938 8.06658C7.65676 8.20752 7.7364 8.33538 7.85183 8.42125L13.5492 12.8975C13.9077 13.1812 14.3445 13.3483 14.8008 13.3763C14.8235 13.3776 14.8462 13.3776 14.8689 13.3763C15.3247 13.3482 15.761 13.1811 16.119 12.8975L23.9658 6.73316V16.9171C23.9658 17.072 23.7891 17.2761 23.4425 17.2761H18.0102C17.9328 17.2756 17.856 17.2904 17.7842 17.3196C17.7125 17.3489 17.6473 17.392 17.5923 17.4466C17.5373 17.5011 17.4936 17.566 17.4638 17.6375C17.434 17.709 17.4186 17.7857 17.4185 17.8632C17.4185 18.1877 17.6836 18.4515 18.0102 18.4496H23.4425C24.3304 18.4496 25.1465 17.8078 25.1465 16.9171V6.07516C25.1465 5.18383 24.3304 4.54232 23.4425 4.54232H8.44138C8.27525 4.12698 8.05592 3.68676 7.77965 3.20827C7.52112 2.67005 7.10174 1.95854 6.57689 1.3864C6.31183 1.09645 6.02591 0.839471 5.66845 0.673338V0.674893C5.4783 0.585821 5.2717 0.537296 5.06178 0.532404Z" fill="black"></path></svg>