<svg xmlns="http://www.w3.org/2000/svg" id="Layer_1" data-name="Layer 1" viewBox="0 0 150 150"><defs><style>      .cls-1 {        fill: #4782b4;      }    </style></defs><path class="cls-1" d="M75,27.7c4.58,0,8.6-2.41,10.87-6.04,7.31,1.49,14.32,4.51,20.44,8.82.75.53,1.61.78,2.46.78,1.34,0,2.67-.63,3.5-1.81,1.36-1.93.9-4.6-1.03-5.96-7.04-4.96-15.1-8.44-23.51-10.17-.77-6.34-6.18-11.26-12.72-11.26-7.07,0-12.82,5.75-12.82,12.82s5.75,12.82,12.82,12.82h0Z"></path><path class="cls-1" d="M75,122.3c-4.58,0-8.6,2.41-10.87,6.04-7.31-1.49-14.32-4.51-20.44-8.82-1.93-1.36-4.6-.9-5.96,1.03-1.36,1.93-.9,4.6,1.03,5.96,7.04,4.96,15.1,8.44,23.51,10.17.77,6.34,6.18,11.26,12.72,11.26,7.07,0,12.82-5.75,12.82-12.82,0-7.07-5.75-12.82-12.82-12.82Z"></path><path class="cls-1" d="M127.07,92.24c-7.07,0-12.82,5.75-12.82,12.82,0,2.17.54,4.22,1.5,6.01-4.97,5.6-11.08,10.16-17.84,13.31-2.14.99-3.07,3.54-2.07,5.68.72,1.56,2.27,2.47,3.88,2.47.6,0,1.22-.13,1.8-.4,7.78-3.61,14.81-8.86,20.53-15.27,1.54.66,3.24,1.03,5.03,1.03,7.07,0,12.82-5.75,12.82-12.82s-5.75-12.82-12.82-12.82h0Z"></path><path class="cls-1" d="M23.37,92.25c-1.85-5.54-2.79-11.33-2.79-17.25,0-1.6.07-3.23.21-4.85.21-2.35-1.53-4.43-3.88-4.63-2.35-.21-4.43,1.53-4.63,3.88-.16,1.86-.25,3.75-.25,5.6,0,6.8,1.07,13.45,3.19,19.83-3.1,2.34-5.11,6.06-5.11,10.23,0,7.07,5.75,12.82,12.82,12.82s12.82-5.75,12.82-12.82-5.52-12.58-12.39-12.81Z"></path><path class="cls-1" d="M126.63,57.75c1.85,5.54,2.79,11.33,2.79,17.25,0,2.36,1.91,4.27,4.27,4.27s4.27-1.91,4.27-4.27c0-6.8-1.07-13.45-3.19-19.83,3.1-2.34,5.11-6.06,5.11-10.23,0-7.07-5.75-12.82-12.82-12.82s-12.82,5.75-12.82,12.82,5.52,12.58,12.39,12.81h0Z"></path><path class="cls-1" d="M52.09,25.62c2.14-.99,3.07-3.54,2.07-5.68-.99-2.14-3.54-3.07-5.68-2.07-7.78,3.61-14.81,8.86-20.53,15.27-1.54-.66-3.24-1.03-5.03-1.03-7.07,0-12.82,5.75-12.82,12.82s5.75,12.82,12.82,12.82,12.82-5.75,12.82-12.82c0-2.17-.54-4.22-1.5-6.01,4.96-5.6,11.08-10.16,17.84-13.31Z"></path><path class="cls-1" d="M103.83,65.09c0-15.9-12.93-28.83-28.83-28.83s-28.83,12.93-28.83,28.83c0,9.35,4.54,15.16,8.19,19.82.9,1.15,1.72,2.2,2.39,3.19h13.98v-15.5l-5.22-4.17c-1.84-1.47-2.14-4.16-.67-6.01,1.47-1.84,4.16-2.14,6.01-.67l4.15,3.32,4.15-3.32c1.84-1.48,4.53-1.18,6.01.67,1.47,1.84,1.18,4.53-.67,6.01l-5.22,4.17v15.5h13.98c.67-.99,1.49-2.04,2.39-3.19,3.65-4.67,8.19-10.47,8.19-19.82h0Z"></path><path class="cls-1" d="M58.46,109.48c0,2.36,1.91,4.27,4.27,4.27h24.54c2.36,0,4.27-1.91,4.27-4.27v-12.82h-33.09v12.82Z"></path></svg>