<svg xmlns="http://www.w3.org/2000/svg" width="30" height="19" viewBox="0 0 30 19" fill="none"><path d="M1.33594 1.97656C0.867188 1.74219 0.5625 1.48438 0.421875 1.20312C0.328125 0.921875 0.328125 0.734375 0.421875 0.640625C0.5625 0.546875 0.84375 0.5 1.26562 0.5H14.6953H28.125C28.5469 0.5 28.8047 0.546875 28.8984 0.640625C29.0391 0.734375 29.0625 0.921875 28.9688 1.20312C28.8281 1.48438 28.5234 1.74219 28.0547 1.97656C20.3203 6.19531 16.3594 8.35156 16.1719 8.44531C15.7969 8.63281 15.3047 8.72656 14.6953 8.72656C14.0859 8.72656 13.5938 8.63281 13.2188 8.44531C13.0312 8.35156 9.07031 6.19531 1.33594 1.97656ZM28.6875 2.25781C29.0156 2.21094 29.1797 2.21094 29.1797 2.25781C29.2266 2.25781 29.25 2.375 29.25 2.60938V17.0234C29.25 17.3516 29.0625 17.6797 28.6875 18.0078C28.3594 18.3359 28.0312 18.5 27.7031 18.5H14.6953H1.6875C1.3125 18.5 0.9375 18.3359 0.5625 18.0078C0.1875 17.6797 0 17.3516 0 17.0234V2.60938C0 2.1875 0.210938 2.07031 0.632812 2.25781C0.773438 2.35156 1.35938 2.75 2.39062 3.45312C3.42188 4.10937 4.6875 4.95312 6.1875 5.98438C7.73438 7.01562 8.97656 7.83594 9.91406 8.44531L4.07812 14.9844C3.9375 15.125 3.91406 15.2422 4.00781 15.3359C4.05469 15.3828 4.125 15.4062 4.21875 15.4062C4.3125 15.3594 4.38281 15.3125 4.42969 15.2656L11.3203 9.42969C12.3047 10.0859 12.9375 10.4844 13.2188 10.625C13.5938 10.8125 14.0859 10.9062 14.6953 10.9062C15.3047 10.9062 15.7969 10.8125 16.1719 10.625C16.4531 10.4844 17.0859 10.0859 18.0703 9.42969L24.9609 15.2656C25.0078 15.3125 25.0781 15.3594 25.1719 15.4062C25.2656 15.4062 25.3359 15.3828 25.3828 15.3359C25.4297 15.2891 25.3828 15.1719 25.2422 14.9844L19.4766 8.44531C20.4141 7.83594 21.6328 7.01562 23.1328 5.98438C24.6328 4.95312 25.8984 4.10937 26.9297 3.45312C27.9609 2.75 28.5469 2.35156 28.6875 2.25781Z" fill="black"></path></svg>