<svg xmlns="http://www.w3.org/2000/svg" id="Layer_1" data-name="Layer 1" viewBox="0 0 150 150"><defs><style>      .cls-1 {        fill: #4782b4;      }    </style></defs><path class="cls-1" d="M147.2,64.57c-.24-1.7-1.48-3.09-3.14-3.53l-7.26-1.91c-1.5-5.84-3.8-11.4-6.89-16.6l3.79-6.5c.86-1.48.76-3.34-.27-4.71-2.07-2.77-4.38-5.43-6.85-7.9-2.47-2.47-5.12-4.77-7.9-6.85-1.37-1.03-3.23-1.14-4.72-.27l-6.5,3.79c-5.2-3.08-10.76-5.39-16.6-6.89l-1.91-7.26c-.44-1.66-1.83-2.9-3.53-3.14-6.86-.99-14-.99-20.86,0-1.7.24-3.09,1.48-3.53,3.14l-1.91,7.26c-5.84,1.49-11.4,3.8-16.6,6.89l-6.5-3.79c-1.48-.87-3.34-.76-4.72.27-2.77,2.08-5.43,4.38-7.9,6.85-2.47,2.47-4.78,5.13-6.85,7.9-1.03,1.37-1.14,3.23-.27,4.71l3.79,6.5c-3.08,5.2-5.39,10.76-6.89,16.6l-7.26,1.91c-1.66.44-2.9,1.83-3.14,3.53-.49,3.43-.74,6.94-.74,10.43s.25,7,.74,10.43c.24,1.7,1.48,3.09,3.14,3.53l7.26,1.91c1.5,5.84,3.8,11.4,6.89,16.6l-3.79,6.5c-.86,1.48-.76,3.34.27,4.71,2.07,2.77,4.38,5.43,6.85,7.9,2.47,2.47,5.12,4.77,7.9,6.85,1.37,1.03,3.23,1.14,4.72.27l6.5-3.79c5.2,3.08,10.76,5.39,16.6,6.89l1.91,7.26c.44,1.66,1.83,2.9,3.53,3.14,3.43.49,6.94.74,10.43.74s7-.25,10.43-.74c1.7-.24,3.09-1.48,3.53-3.14l1.91-7.26c5.84-1.49,11.4-3.8,16.6-6.89l6.5,3.79c1.48.87,3.34.76,4.72-.27,2.77-2.08,5.43-4.38,7.9-6.85,2.47-2.47,4.78-5.13,6.85-7.9,1.03-1.37,1.14-3.23.27-4.71l-3.79-6.5c3.08-5.2,5.39-10.76,6.89-16.6l7.26-1.91c1.66-.44,2.9-1.83,3.14-3.53.49-3.43.74-6.94.74-10.43s-.25-7-.74-10.43h0ZM75,120.48c-25.08,0-45.48-20.4-45.48-45.48s20.4-45.48,45.48-45.48,45.48,20.4,45.48,45.48-20.4,45.48-45.48,45.48Z"></path><path class="cls-1" d="M75,38.07c-20.36,0-36.93,16.57-36.93,36.93s16.57,36.93,36.93,36.93,36.93-16.57,36.93-36.93-16.57-36.93-36.93-36.93ZM96.33,68.87l-22.89,22.89c-.8.8-1.89,1.25-3.02,1.25s-2.22-.45-3.02-1.25l-11.45-11.45c-1.67-1.67-1.67-4.38,0-6.04,1.67-1.67,4.38-1.67,6.04,0l8.42,8.42,19.87-19.87c1.67-1.67,4.38-1.67,6.04,0,1.67,1.67,1.67,4.38,0,6.04h0Z"></path></svg>