<svg xmlns="http://www.w3.org/2000/svg" id="Layer_1" data-name="Layer 1" viewBox="0 0 150 150"><defs><style>      .cls-1 {        fill: #4782b4;        fill-rule: evenodd;      }    </style></defs><path class="cls-1" d="M112.97,85.96c-.82,2.86-1.96,5.58-3.37,8.13l2.85,5.6c.91,1.79.58,3.87-.84,5.29l-6.62,6.62c-1.42,1.42-3.5,1.75-5.29.84l-5.6-2.85c-2.55,1.41-5.27,2.55-8.13,3.37l-1.94,5.97c-.62,1.91-2.33,3.15-4.34,3.15h-9.37c-2.01,0-3.71-1.24-4.34-3.15l-1.94-5.97c-2.86-.82-5.58-1.96-8.13-3.37l-5.6,2.85c-1.79.91-3.87.58-5.29-.84l-6.62-6.62c-1.42-1.42-1.75-3.5-.84-5.29l2.85-5.6c-1.41-2.55-2.55-5.27-3.37-8.13l-5.97-1.94c-1.91-.62-3.15-2.33-3.15-4.34v-9.37c0-2.01,1.24-3.71,3.15-4.34l5.97-1.94c.82-2.86,1.96-5.58,3.37-8.13l-2.85-5.6c-.91-1.79-.58-3.87.84-5.29l6.62-6.62c1.42-1.42,3.5-1.75,5.29-.84l5.6,2.85c2.55-1.41,5.27-2.55,8.13-3.37l1.94-5.97c.62-1.91,2.33-3.15,4.34-3.15h9.37c2.01,0,3.71,1.24,4.34,3.15l1.94,5.97c2.86.82,5.58,1.96,8.13,3.37l5.6-2.85c1.79-.91,3.87-.58,5.29.84l6.62,6.62c1.42,1.42,1.75,3.5.84,5.29l-2.85,5.6c1.41,2.55,2.55,5.27,3.37,8.13l5.97,1.94c1.91.62,3.15,2.33,3.15,4.34v9.37c0,2.01-1.24,3.71-3.15,4.34l-5.97,1.94h0ZM23.5,39.24l5.98,5.98,6.01-25.47-25.47,6.01,6.13,6.13C-4.81,60.43-2.39,100.77,23.42,126.58c23.23,23.23,58.22,27.51,85.79,12.86l-7.64-7.64c-23.22,10.86-51.73,6.7-70.9-12.47-21.8-21.8-24.18-55.65-7.17-80.09h0ZM114.51,130.25l25.47-6.01-6.13-6.13c20.96-28.54,18.54-68.88-7.27-94.69C103.35.19,68.36-4.09,40.79,10.56l7.64,7.64c23.22-10.86,51.73-6.7,70.9,12.47,21.8,21.8,24.18,55.65,7.17,80.09l-5.98-5.98-6.01,25.47h0ZM84.16,65.84c-5.06-5.06-13.25-5.06-18.31,0-5.06,5.06-5.06,13.25,0,18.31,5.06,5.06,13.25,5.06,18.31,0s5.06-13.25,0-18.31h0ZM93.62,56.38c-10.28-10.28-26.95-10.28-37.24,0-10.28,10.28-10.28,26.95,0,37.24,10.28,10.28,26.95,10.28,37.24,0s10.28-26.95,0-37.24h0Z"></path></svg>