<svg xmlns="http://www.w3.org/2000/svg" width="64" height="64" viewBox="0 0 64 64" fill="none"><path d="M31.9993 44.6624C39.047 44.6624 44.7603 38.9138 44.7603 31.8224C44.7603 24.7311 39.047 18.9824 31.9993 18.9824C24.9516 18.9824 19.2383 24.7311 19.2383 31.8224C19.2383 38.9138 24.9516 44.6624 31.9993 44.6624Z" stroke="black" stroke-width="2.6" stroke-miterlimit="10" stroke-linecap="round" stroke-linejoin="round"></path><path d="M9.43359 31.7324H19.2396L44.7616 31.8232H54.5676M41.0726 40.8522L47.9831 47.7933M23.1778 41.0999L15.9188 48.4039" stroke="black" stroke-width="2.6" stroke-miterlimit="10" stroke-linecap="round" stroke-linejoin="round"></path><path d="M50.654 54.2796C52.7411 54.2796 54.433 52.5772 54.433 50.4772C54.433 48.3772 52.7411 46.6748 50.654 46.6748C48.5669 46.6748 46.875 48.3772 46.875 50.4772C46.875 52.5772 48.5669 54.2796 50.654 54.2796Z" stroke="black" stroke-width="2.6" stroke-miterlimit="10" stroke-linecap="round" stroke-linejoin="round"></path><path d="M32.0017 61.9329C34.0887 61.9329 35.7807 60.2305 35.7807 58.1305C35.7807 56.0305 34.0887 54.3281 32.0017 54.3281C29.9146 54.3281 28.2227 56.0305 28.2227 58.1305C28.2227 60.2305 29.9146 61.9329 32.0017 61.9329Z" stroke="black" stroke-width="2.6" stroke-miterlimit="10" stroke-linecap="round" stroke-linejoin="round"></path><path d="M13.4899 55.1087C15.577 55.1087 17.2689 53.4063 17.2689 51.3063C17.2689 49.2063 15.577 47.5039 13.4899 47.5039C11.4029 47.5039 9.71094 49.2063 9.71094 51.3063C9.71094 53.4063 11.4029 55.1087 13.4899 55.1087Z" stroke="black" stroke-width="2.6" stroke-miterlimit="10" stroke-linecap="round" stroke-linejoin="round"></path><path d="M5.654 35.5344C7.74108 35.5344 9.433 33.832 9.433 31.732C9.433 29.632 7.74108 27.9296 5.654 27.9296C3.56692 27.9296 1.875 29.632 1.875 31.732C1.875 33.832 3.56692 35.5344 5.654 35.5344Z" stroke="black" stroke-width="2.6" stroke-miterlimit="10" stroke-linecap="round" stroke-linejoin="round"></path><path d="M58.3454 35.6253C60.4325 35.6253 62.1244 33.9229 62.1244 31.8229C62.1244 29.7229 60.4325 28.0205 58.3454 28.0205C56.2583 28.0205 54.5664 29.7229 54.5664 31.8229C54.5664 33.9229 56.2583 35.6253 58.3454 35.6253Z" stroke="black" stroke-width="2.6" stroke-miterlimit="10" stroke-linecap="round" stroke-linejoin="round"></path><path d="M32.0059 9.28711L31.9982 18.9824C31.9982 18.9824 21.3521 30.886 31.9982 44.6624V54.3274M22.9386 22.78L16.0234 15.822M40.8094 22.5347L48.0877 15.2114" stroke="black" stroke-width="2.6" stroke-miterlimit="10" stroke-linecap="round" stroke-linejoin="round"></path><path d="M13.3532 16.9407C15.4403 16.9407 17.1322 15.2383 17.1322 13.1383C17.1322 11.0383 15.4403 9.33594 13.3532 9.33594C11.2661 9.33594 9.57422 11.0383 9.57422 13.1383C9.57422 15.2383 11.2661 16.9407 13.3532 16.9407Z" stroke="black" stroke-width="2.6" stroke-miterlimit="10" stroke-linecap="round" stroke-linejoin="round"></path><path d="M32.0095 9.28737C34.0966 9.28737 35.7885 7.58499 35.7885 5.48499C35.7885 3.385 34.0966 1.68262 32.0095 1.68262C29.9224 1.68262 28.2305 3.385 28.2305 5.48499C28.2305 7.58499 29.9224 9.28737 32.0095 9.28737Z" stroke="black" stroke-width="2.6" stroke-miterlimit="10" stroke-linecap="round" stroke-linejoin="round"></path><path d="M50.5212 16.1116C52.6083 16.1116 54.3002 14.4092 54.3002 12.3092C54.3002 10.2092 52.6083 8.50684 50.5212 8.50684C48.4341 8.50684 46.7422 10.2092 46.7422 12.3092C46.7422 14.4092 48.4341 16.1116 50.5212 16.1116Z" stroke="black" stroke-width="2.6" stroke-miterlimit="10" stroke-linecap="round" stroke-linejoin="round"></path><path d="M32 19.0037C32 19.0037 42.6461 30.9074 32 44.6837" stroke="black" stroke-width="2.6" stroke-miterlimit="10" stroke-linecap="round" stroke-linejoin="round"></path></svg>