<svg xmlns="http://www.w3.org/2000/svg" width="64" height="40" viewBox="0 0 64 40" fill="none"><path d="M56.1926 0.807617C51.8873 0.807617 48.385 4.31019 48.385 8.61524C48.385 10.69 49.2 12.5768 50.5246 13.9764L43.9786 23.842C43.3209 23.6657 42.643 23.5765 41.9621 23.5765C39.9367 23.5765 38.0891 24.352 36.7003 25.6213L31.8177 20.7387C32.3936 19.6314 32.6939 18.4015 32.693 17.1534C32.693 12.8481 29.1904 9.34575 24.8852 9.34575C20.5799 9.34575 17.0776 12.8483 17.0776 17.1534C17.0776 18.3437 17.3463 19.472 17.8247 20.4825L12.2687 24.9812C10.9617 24.0655 9.40416 23.5749 7.80827 23.5763C3.50257 23.5767 0 27.0793 0 31.3847C0 35.69 3.50257 39.1924 7.80784 39.1924C12.1131 39.1924 15.6155 35.6898 15.6155 31.3847C15.6161 30.3051 15.3915 29.2373 14.9561 28.2494L20.6019 23.6775C21.8725 24.5165 23.3619 24.963 24.8845 24.9616C26.31 24.9634 27.7085 24.5725 28.9265 23.8318L34.4288 29.3341C34.2463 30.0023 34.1538 30.6919 34.1538 31.3845C34.1538 35.6898 37.6564 39.1921 41.9617 39.1921C46.2669 39.1921 49.7693 35.6896 49.7693 31.3845C49.7693 29.3033 48.9491 27.4111 47.6172 26.0102L54.1577 16.1526C54.821 16.3322 55.5051 16.4231 56.1922 16.4231C60.4974 16.4231 64 12.9205 64 8.61524C64.0004 4.31019 60.4979 0.807617 56.1926 0.807617ZM7.80784 34.9614C5.83546 34.9614 4.23092 33.3569 4.23092 31.3847C4.23092 29.4124 5.83546 27.8078 7.80784 27.8078C9.78 27.8078 11.3845 29.4124 11.3845 31.3847C11.3848 33.3567 9.78 34.9614 7.80784 34.9614ZM24.8847 20.7307C22.9126 20.7307 21.3081 19.1262 21.3081 17.1538C21.3081 15.1816 22.9126 13.5771 24.8847 13.5771C26.8571 13.5771 28.4617 15.1816 28.4617 17.1538C28.4617 19.1262 26.8571 20.7307 24.8847 20.7307ZM41.9619 34.9614C39.9895 34.9614 38.385 33.3569 38.385 31.3847C38.385 29.4124 39.9895 27.8078 41.9619 27.8078C43.934 27.8078 45.5386 29.4124 45.5386 31.3847C45.5386 33.3567 43.934 34.9614 41.9619 34.9614ZM56.1926 12.1924C54.2204 12.1924 52.6159 10.5878 52.6159 8.61545C52.6159 6.64329 54.2204 5.03876 56.1926 5.03876C58.165 5.03876 59.7695 6.64329 59.7695 8.61545C59.7695 10.5876 58.1648 12.1924 56.1926 12.1924Z" fill="black"></path></svg>