<svg xmlns="http://www.w3.org/2000/svg" width="61" height="60" viewBox="0 0 61 60" fill="none"><path d="M44.1923 10.3971C42.5433 11.439 41.2775 12.9883 40.5853 14.8118C39.8931 16.6353 39.8121 18.6344 40.3544 20.508C40.8967 22.3816 42.033 24.0283 43.5921 25.2002C45.1513 26.372 47.049 27.0057 48.9995 27.0057C50.95 27.0057 52.8477 26.372 54.4069 25.2002C55.9661 24.0283 57.1024 22.3816 57.6447 20.508C58.187 18.6344 58.1059 16.6353 57.4137 14.8118C56.7216 12.9883 55.4557 11.439 53.8068 10.3971L51.2693 5.95763C51.5702 5.60883 51.7867 5.19539 51.902 4.74939C52.0173 4.30339 52.0284 3.83682 51.9342 3.38588C51.8401 2.93493 51.6433 2.51174 51.3592 2.14912C51.0751 1.78651 50.7113 1.49422 50.2959 1.29494C49.8806 1.09566 49.4249 0.99474 48.9643 1.00001C48.5037 1.00529 48.0504 1.11661 47.6398 1.32535C47.2291 1.53409 46.8721 1.83463 46.5963 2.20365C46.3206 2.57268 46.1336 3.00027 46.0498 3.45325L33.6683 5.40838C33.4475 4.9025 33.1249 4.44751 32.7206 4.07177C32.3163 3.69602 31.8389 3.40756 31.3183 3.22438L30.9903 0.861877C30.9571 0.622776 30.8385 0.403752 30.6565 0.24523C30.4744 0.0867085 30.2412 -0.000610352 29.9998 -0.000610352C29.7584 -0.000610352 29.5251 0.0867085 29.3431 0.24523C29.161 0.403752 29.0425 0.622776 29.0093 0.861877L28.6813 3.22438C27.9604 3.47729 27.3268 3.93092 26.8551 4.53184C26.3834 5.13276 26.0933 5.85595 26.0188 6.61625L13.637 8.57125C13.4368 8.20065 13.1607 7.87639 12.8267 7.61959C12.4928 7.3628 12.1085 7.17924 11.6989 7.08087C11.2893 6.9825 10.8636 6.97152 10.4495 7.04865C10.0353 7.12579 9.64209 7.2893 9.29536 7.52854C8.94864 7.76778 8.65621 8.07738 8.43712 8.43718C8.21802 8.79697 8.07719 9.19888 8.02378 9.61674C7.97037 10.0346 8.0056 10.459 8.12715 10.8623C8.24871 11.2657 8.45387 11.6389 8.72927 11.9576L6.19177 16.3971C4.54284 17.439 3.27699 18.9883 2.5848 20.8118C1.89262 22.6353 1.81158 24.6344 2.35388 26.508C2.89617 28.3816 4.03246 30.0283 5.59165 31.2002C7.15084 32.3721 9.04854 33.0057 10.999 33.0057C12.9495 33.0057 14.8472 32.3721 16.4064 31.2002C17.9656 30.0283 19.1019 28.3816 19.6442 26.508C20.1865 24.6344 20.1054 22.6353 19.4132 20.8118C18.7211 18.9883 17.4552 17.439 15.8063 16.3971L13.2688 11.9576C13.6163 11.556 13.8506 11.069 13.9475 10.5468L26.3297 8.59175C26.6244 9.26662 27.0988 9.84764 27.701 10.2715L24.009 36.8625C23.9894 37.0041 24.0003 37.1482 24.0411 37.2852C24.0818 37.4222 24.1515 37.5489 24.2454 37.6567C24.3392 37.7645 24.4551 37.8509 24.5852 37.9101C24.7153 37.9694 24.8566 38 24.9995 38H34.9995C35.1425 38 35.2837 37.9694 35.4138 37.9101C35.5439 37.8509 35.6598 37.7645 35.7537 37.6567C35.8475 37.5489 35.9172 37.4222 35.958 37.2852C35.9988 37.1482 36.0097 37.0041 35.99 36.8625L32.2969 10.2715C32.7692 9.94007 33.1642 9.51042 33.4548 9.01202C33.7454 8.51361 33.9248 7.95824 33.9806 7.384L46.362 5.42875C46.4651 5.61767 46.5881 5.79498 46.729 5.95763L44.1923 10.3971ZM10.9995 9C11.1973 9 11.3906 9.05865 11.5551 9.16853C11.7195 9.27841 11.8477 9.43459 11.9234 9.61732C11.9991 9.80004 12.0189 10.0011 11.9803 10.1951C11.9417 10.3891 11.8465 10.5673 11.7066 10.7071C11.5668 10.847 11.3886 10.9422 11.1946 10.9808C11.0006 11.0194 10.7996 10.9996 10.6168 10.9239C10.4341 10.8482 10.2779 10.72 10.1681 10.5556C10.0582 10.3911 9.99953 10.1978 9.99953 10C9.99982 9.73488 10.1053 9.4807 10.2927 9.29322C10.4802 9.10575 10.7344 9.0003 10.9995 9ZM17.9995 24C17.9995 25.3845 17.589 26.7379 16.8198 27.889C16.0506 29.0401 14.9574 29.9373 13.6783 30.4672C12.3992 30.997 10.9918 31.1356 9.63389 30.8655C8.27603 30.5954 7.02875 29.9287 6.04978 28.9497C5.07081 27.9708 4.40412 26.7235 4.13403 25.3656C3.86393 24.0078 4.00255 22.6003 4.53237 21.3212C5.06218 20.0421 5.95939 18.9489 7.11053 18.1797C8.26168 17.4105 9.61506 17 10.9995 17C12.8554 17.0021 14.6346 17.7403 15.9469 19.0526C17.2592 20.3649 17.9974 22.1441 17.9995 24ZM10.9995 15C10.3916 14.9997 9.78522 15.061 9.18965 15.1829L10.4647 12.9514C10.8182 13.0162 11.1806 13.0162 11.5342 12.9514L12.8091 15.1829C12.2137 15.061 11.6074 14.9997 10.9995 15ZM29.9995 5C30.3951 5 30.7818 5.1173 31.1107 5.33706C31.4396 5.55683 31.6959 5.86918 31.8473 6.23464C31.9987 6.60009 32.0383 7.00222 31.9611 7.39018C31.8839 7.77814 31.6934 8.13451 31.4137 8.41422C31.134 8.69392 30.7777 8.8844 30.3897 8.96157C30.0017 9.03874 29.5996 8.99914 29.2342 8.84776C28.8687 8.69639 28.5563 8.44004 28.3366 8.11114C28.1168 7.78224 27.9995 7.39556 27.9995 7C28.0002 6.46976 28.2111 5.96142 28.586 5.58648C28.9609 5.21155 29.4693 5.00063 29.9995 5ZM33.851 36H26.148L29.623 10.9818C29.7472 10.9934 29.873 11 29.9998 11C30.1265 11 30.2524 10.9934 30.3765 10.9818L33.851 36ZM55.9995 18C55.9995 19.3845 55.589 20.7379 54.8198 21.889C54.0506 23.0401 52.9574 23.9373 51.6783 24.4672C50.3992 24.997 48.9918 25.1356 47.6339 24.8655C46.276 24.5954 45.0287 23.9287 44.0498 22.9497C43.0708 21.9708 42.4041 20.7235 42.134 19.3656C41.8639 18.0078 42.0026 16.6003 42.5324 15.3212C43.0622 14.0421 43.9594 12.9489 45.1105 12.1797C46.2617 11.4105 47.6151 11 48.9995 11C50.8554 11.0021 52.6346 11.7403 53.9469 13.0526C55.2592 14.3649 55.9974 16.1441 55.9995 18ZM48.9995 9C48.3916 8.99972 47.7852 9.06099 47.1896 9.18288L48.4646 6.95138C48.8182 7.01621 49.1806 7.01621 49.5341 6.95138L50.8091 9.18288C50.2137 9.061 49.6074 8.99973 48.9995 9ZM48.9995 3C49.1973 3 49.3906 3.05865 49.5551 3.16853C49.7195 3.27841 49.8477 3.43459 49.9234 3.61732C49.9991 3.80004 50.0189 4.00111 49.9803 4.19509C49.9417 4.38907 49.8465 4.56726 49.7066 4.70711C49.5668 4.84696 49.3886 4.9422 49.1946 4.98079C49.0006 5.01937 48.7996 4.99957 48.6168 4.92388C48.4341 4.84819 48.2779 4.72002 48.1681 4.55557C48.0582 4.39112 47.9995 4.19778 47.9995 4C47.9998 3.73488 48.1053 3.4807 48.2927 3.29322C48.4802 3.10575 48.7344 3.0003 48.9995 3Z" fill="white"></path><path d="M8.70712 24.2929C8.61426 24.2 8.50402 24.1264 8.38269 24.0761C8.26136 24.0259 8.13133 24 8 24C7.86867 24 7.73864 24.0259 7.61731 24.0761C7.49598 24.1264 7.38574 24.2 7.29288 24.2929C7.20001 24.3858 7.12635 24.496 7.0761 24.6173C7.02584 24.7387 6.99997 24.8687 6.99997 25C6.99997 25.1314 7.02584 25.2614 7.0761 25.3827C7.12635 25.504 7.20001 25.6143 7.29288 25.7072L9.29288 27.7072C9.38573 27.8 9.49598 27.8737 9.6173 27.9239C9.73863 27.9742 9.86867 28.0001 10 28.0001C10.1313 28.0001 10.2614 27.9742 10.3827 27.9239C10.504 27.8737 10.6143 27.8 10.7071 27.7072L15.7071 22.7072C15.8947 22.5196 16 22.2652 16 22C16 21.7348 15.8947 21.4804 15.7071 21.2929C15.5196 21.1054 15.2652 21 15 21C14.7348 21 14.4804 21.1054 14.2929 21.2929L10 25.5859L8.70712 24.2929ZM46.7071 14.2929C46.5196 14.1054 46.2652 14 46 14C45.7348 14 45.4804 14.1054 45.2929 14.2929C45.1053 14.4804 45 14.7348 45 15C45 15.2652 45.1053 15.5196 45.2929 15.7072L47.5859 18L45.2929 20.2929C45.1053 20.4804 45 20.7348 45 21C45 21.2652 45.1053 21.5196 45.2929 21.7072C45.4804 21.8947 45.7348 22.0001 46 22.0001C46.2652 22.0001 46.5196 21.8947 46.7071 21.7072L49 19.4142L51.2929 21.7072C51.4804 21.8947 51.7348 22.0001 52 22.0001C52.2652 22.0001 52.5196 21.8947 52.7071 21.7072C52.8947 21.5196 53 21.2652 53 21C53 20.7348 52.8947 20.4804 52.7071 20.2929L50.4141 18L52.7071 15.7072C52.8 15.6143 52.8736 15.504 52.9239 15.3827C52.9742 15.2614 53 15.1314 53 15C53 14.8687 52.9742 14.7387 52.9239 14.6173C52.8736 14.496 52.8 14.3858 52.7071 14.2929C52.6143 14.2 52.504 14.1264 52.3827 14.0761C52.2614 14.0259 52.1313 14 52 14C51.8687 14 51.7386 14.0259 51.6173 14.0761C51.496 14.1264 51.3857 14.2 51.2929 14.2929L49 16.5859L46.7071 14.2929ZM59.9046 45.9552C59.556 45.0874 58.9032 44.3762 58.0684 43.9547C57.2336 43.5332 56.2738 43.4302 55.3685 43.6649L35.1115 48.95L30.5916 47.142L33.0924 46.5198C33.8791 46.3233 34.5644 45.841 35.0149 45.1668C35.4654 44.4926 35.6488 43.6749 35.5293 42.8729C35.4098 42.0709 34.996 41.3421 34.3686 40.8286C33.7411 40.315 32.9449 40.0534 32.1351 40.0948L15.0195 41L11 40.997V40C11 39.7348 10.8946 39.4805 10.7071 39.2929C10.5196 39.1054 10.2652 39 10 39H1C0.734784 39 0.48043 39.1054 0.292893 39.2929C0.105357 39.4805 0 39.7348 0 40V58C0 58.2652 0.105357 58.5196 0.292893 58.7071C0.48043 58.8947 0.734784 59 1 59H10C10.2652 59 10.5196 58.8947 10.7071 58.7071C10.8946 58.5196 11 58.2652 11 58V56.8682L17 56.0165L33.8167 59.9734C34.0122 60.0193 34.2169 60.0054 34.4043 59.9334L57.7168 50.967C58.1916 50.7844 58.6254 50.5093 58.9931 50.1576C59.3607 49.8059 59.6548 49.3847 59.8583 48.9184C60.0619 48.4522 60.1707 47.9501 60.1786 47.4414C60.1865 46.9327 60.0932 46.4275 59.9043 45.9552H59.9046ZM9 57H2V41H9V57ZM58.0256 48.1184C57.9287 48.3423 57.7879 48.5445 57.6116 48.7131C57.4353 48.8818 57.227 49.0134 56.999 49.1003L33.975 57.9559L17.275 54.0267C17.154 53.998 17.0286 53.9924 16.9055 54.01L11 54.8482V42.997L15.0448 43C15.0619 43 15.0805 43 15.0984 42.9987L32.2375 42.0917C32.4661 42.0802 32.6935 42.1311 32.8955 42.2389C33.0974 42.3467 33.2662 42.5073 33.384 42.7036C33.5017 42.8999 33.5638 43.1245 33.5638 43.3534C33.5638 43.5823 33.5015 43.8069 33.3838 44.0032C33.2989 44.1455 33.1866 44.2696 33.0535 44.3683C32.9203 44.467 32.7689 44.5384 32.608 44.5782L22.758 47.0293C22.6298 47.0602 22.5089 47.1162 22.4024 47.1941C22.2959 47.272 22.2059 47.3701 22.1375 47.4829C22.0691 47.5957 22.0237 47.721 22.0039 47.8514C21.9842 47.9818 21.9904 48.1149 22.0222 48.2429C22.0541 48.3709 22.111 48.4913 22.1896 48.5973C22.2682 48.7032 22.367 48.7925 22.4803 48.8601C22.5935 48.9277 22.7191 48.9722 22.8496 48.9911C22.9802 49.0099 23.1132 49.0028 23.241 48.97L27.2712 47.9672L34.6738 50.9282C34.8722 51.0074 35.0907 51.0211 35.2975 50.9673L55.8725 45.5998C56.2069 45.5125 56.5591 45.5212 56.8888 45.6247C57.2185 45.7282 57.5124 45.9224 57.737 46.1851C57.9615 46.4478 58.1076 46.7684 58.1584 47.1103C58.2093 47.4521 58.163 47.8013 58.0247 48.118L58.0256 48.1184Z" fill="white"></path></svg>