<svg xmlns="http://www.w3.org/2000/svg" width="64" height="52" viewBox="0 0 64 52" fill="none"><path d="M7.00187 36.4437H1.375C1.14294 36.4437 0.920376 36.5359 0.756282 36.7C0.592187 36.8641 0.5 37.0867 0.5 37.3187V50.994C0.5 51.226 0.592187 51.4486 0.756282 51.6127C0.920376 51.7768 1.14294 51.869 1.375 51.869H7.002C7.23406 51.869 7.45662 51.7768 7.62072 51.6127C7.78481 51.4486 7.877 51.226 7.877 50.994V37.3187C7.87697 37.0867 7.78475 36.8641 7.62064 36.7C7.45652 36.5359 7.23395 36.4437 7.00187 36.4437ZM6.12687 50.119H2.25V38.1937H6.127L6.12687 50.119ZM17.994 25.7561H12.367C12.1349 25.7561 11.9124 25.8483 11.7483 26.0124C11.5842 26.1765 11.492 26.399 11.492 26.6311V50.9939C11.492 51.2259 11.5842 51.4485 11.7483 51.6126C11.9124 51.7767 12.1349 51.8689 12.367 51.8689H17.994C18.2261 51.8689 18.4486 51.7767 18.6127 51.6126C18.7768 51.4485 18.869 51.2259 18.869 50.9939V26.6311C18.869 26.399 18.7768 26.1765 18.6127 26.0124C18.4486 25.8483 18.2261 25.7561 17.994 25.7561ZM17.119 50.1189H13.242V27.5061H17.119V50.1189ZM28.986 32.2062H23.359C23.1269 32.2062 22.9044 32.2984 22.7403 32.4625C22.5762 32.6266 22.484 32.8492 22.484 33.0812V50.9941C22.484 51.2262 22.5762 51.4487 22.7403 51.6128C22.9044 51.7769 23.1269 51.8691 23.359 51.8691H28.986C29.2181 51.8691 29.4406 51.7769 29.6047 51.6128C29.7688 51.4487 29.861 51.2262 29.861 50.9941V33.0812C29.861 32.8492 29.7688 32.6266 29.6047 32.4625C29.4406 32.2984 29.2181 32.2062 28.986 32.2062ZM28.111 50.119H24.234V33.9562H28.111V50.119ZM4.18837 24.8186C5.56687 24.8186 6.68837 23.6971 6.68837 22.3186C6.68837 21.9534 6.60775 21.6071 6.46625 21.294L14.11 13.8867C14.4441 14.047 14.8098 14.1305 15.1804 14.1309C15.7772 14.1309 16.3254 13.92 16.7557 13.5696L23.7121 17.6516C23.6866 17.7933 23.6734 17.9369 23.6726 18.0809C23.6726 19.4594 24.7941 20.5809 26.1726 20.5809C27.5511 20.5809 28.6726 19.4594 28.6726 18.0809C28.6726 17.5625 28.5139 17.0805 28.2426 16.6807L36.5217 5.04386C36.7274 5.09874 36.9421 5.13074 37.1647 5.13074C38.5432 5.13074 39.6647 4.00924 39.6647 2.63074C39.6647 1.25224 38.5432 0.130737 37.1647 0.130737C35.7862 0.130737 34.6647 1.25224 34.6647 2.63074C34.6647 3.14911 34.8235 3.63111 35.0947 4.03086L26.8156 15.6677C26.606 15.6108 26.3898 15.5816 26.1726 15.5809C25.5757 15.5809 25.0276 15.7917 24.5972 16.142L17.6409 12.06C17.6652 11.9202 17.6805 11.7774 17.6805 11.6307C17.6805 10.2522 16.559 9.13074 15.1805 9.13074C13.802 9.13074 12.6805 10.2522 12.6805 11.6307C12.6805 11.9865 12.7564 12.3245 12.8909 12.6311L5.23437 20.0507C4.90679 19.898 4.5498 19.8187 4.18837 19.8184C2.80987 19.8184 1.68837 20.9399 1.68837 22.3184C1.6885 23.6971 2.80987 24.8186 4.18837 24.8186ZM37.1646 1.88099C37.5781 1.88099 37.9146 2.21749 37.9146 2.63099C37.9146 3.04449 37.5782 3.38099 37.1646 3.38099C36.751 3.38099 36.4146 3.04461 36.4146 2.63099C36.4146 2.21736 36.751 1.88099 37.1646 1.88099ZM26.1725 17.3311C26.586 17.3311 26.9225 17.6675 26.9225 18.0811C26.9225 18.4947 26.5861 18.8311 26.1725 18.8311C25.7589 18.8311 25.4225 18.4947 25.4225 18.0811C25.4225 17.6675 25.759 17.3311 26.1725 17.3311ZM15.1805 10.881C15.5941 10.881 15.9305 11.2175 15.9305 11.631C15.9305 12.0445 15.5941 12.381 15.1805 12.381C14.767 12.381 14.4305 12.0446 14.4305 11.631C14.4305 11.2174 14.7669 10.881 15.1805 10.881ZM4.18837 21.5686C4.602 21.5686 4.93837 21.9051 4.93837 22.3186C4.93837 22.7321 4.602 23.0686 4.18837 23.0686C3.77487 23.0686 3.43837 22.7322 3.43837 22.3186C3.43837 21.905 3.77487 21.5686 4.18837 21.5686ZM63.0624 41.0066L60.526 39.5422C60.6867 38.466 60.6867 37.3718 60.526 36.2955L63.0624 34.8311C63.2633 34.7151 63.41 34.524 63.47 34.2998C63.5301 34.0757 63.4986 33.8368 63.3826 33.6359L60.2742 28.2519C60.1582 28.0509 59.9671 27.9043 59.743 27.8441C59.5188 27.7841 59.28 27.8156 59.079 27.9315L56.5414 29.3966C55.6918 28.7161 54.7442 28.1681 53.7307 27.7711V24.8437C53.7307 24.6117 53.6386 24.3891 53.4745 24.225C53.3104 24.0609 53.0878 23.9687 52.8557 23.9687H46.6387C46.4067 23.9687 46.1841 24.0609 46.02 24.225C45.8559 24.3891 45.7637 24.6117 45.7637 24.8437V27.7711C44.7502 28.1681 43.8026 28.7161 42.9531 29.3966L40.8531 28.1841V17.6311C40.8531 17.399 40.7609 17.1765 40.5968 17.0124C40.4327 16.8483 40.2102 16.7561 39.9781 16.7561H34.3511C34.1191 16.7561 33.8965 16.8483 33.7324 17.0124C33.5683 17.1765 33.4761 17.399 33.4761 17.6311V50.9941C33.4761 51.2262 33.5683 51.4487 33.7324 51.6128C33.8965 51.7769 34.1191 51.8691 34.3511 51.8691H39.9781C40.2102 51.8691 40.4327 51.7769 40.5968 51.6128C40.7609 51.4487 40.8531 51.2262 40.8531 50.9941V47.6536L42.9531 46.4411C43.8027 47.1216 44.7502 47.6696 45.7637 48.0666V50.994C45.7637 51.226 45.8559 51.4486 46.02 51.6127C46.1841 51.7768 46.4067 51.869 46.6387 51.869H52.8557C53.0878 51.869 53.3104 51.7768 53.4745 51.6127C53.6386 51.4486 53.7307 51.226 53.7307 50.994V48.0666C54.7442 47.6696 55.6918 47.1216 56.5414 46.4411L59.0789 47.9062C59.1784 47.9637 59.2882 48.001 59.4022 48.0161C59.5161 48.0311 59.6319 48.0235 59.7429 47.9937C59.8539 47.964 59.9579 47.9127 60.0491 47.8427C60.1402 47.7727 60.2167 47.6854 60.2741 47.5859L63.3825 42.202C63.44 42.1025 63.4773 41.9926 63.4923 41.8787C63.5073 41.7648 63.4997 41.649 63.47 41.538C63.4403 41.427 63.389 41.3229 63.319 41.2318C63.2491 41.1406 63.1619 41.0641 63.0624 41.0066ZM39.1031 50.119H35.2261V18.5061H39.1031V28.4549L36.1119 33.6359C35.9958 33.8368 35.9644 34.0757 36.0245 34.2998C36.0845 34.524 36.2312 34.7151 36.4321 34.8311L38.9685 36.2955C38.8078 37.3718 38.8078 38.466 38.9685 39.5422L36.4321 41.0066C36.3326 41.0641 36.2454 41.1406 36.1754 41.2317C36.1054 41.3229 36.0541 41.427 36.0244 41.538C35.9947 41.649 35.9871 41.7647 36.0021 41.8787C36.0171 41.9926 36.0544 42.1025 36.1119 42.202L39.1031 47.3829V50.119ZM59.1962 45.9531L56.8832 44.6176C56.7234 44.5253 56.5383 44.4859 56.3547 44.5051C56.1711 44.5243 55.9982 44.6011 55.8609 44.7245C54.903 45.5854 53.8009 46.2227 52.5849 46.619C52.4093 46.6762 52.2563 46.7874 52.1478 46.9369C52.0393 47.0863 51.9809 47.2662 51.9809 47.4509V50.1187H47.5139V47.4509C47.5139 47.0721 47.2701 46.7362 46.9099 46.619C45.6937 46.2227 44.5916 45.5852 43.6339 44.7245C43.4965 44.6011 43.3237 44.5243 43.14 44.5051C42.9564 44.4859 42.7714 44.5253 42.6115 44.6176L40.2985 45.9531L38.065 42.0847L40.3757 40.7505C40.5355 40.6582 40.662 40.5179 40.7373 40.3494C40.8125 40.1809 40.8325 39.993 40.7945 39.8125C40.6642 39.1934 40.5981 38.5561 40.5981 37.9189C40.5981 37.2816 40.6642 36.6444 40.7945 36.0252C40.8325 35.8447 40.8125 35.6568 40.7373 35.4883C40.662 35.3199 40.5355 35.1795 40.3757 35.0872L38.065 33.753L40.2985 29.8846L42.6115 31.2201C42.7714 31.3124 42.9564 31.3517 43.14 31.3325C43.3237 31.3133 43.4965 31.2365 43.6339 31.1131C44.5914 30.2524 45.6936 29.6151 46.91 29.2186C47.0855 29.1614 47.2385 29.0501 47.347 28.9007C47.4554 28.7513 47.5139 28.5714 47.5139 28.3867V25.7189H51.9809V28.3867C51.9809 28.5714 52.0393 28.7513 52.1478 28.9007C52.2562 29.0501 52.4092 29.1614 52.5847 29.2186C53.8011 29.6151 54.9034 30.2525 55.8609 31.1131C55.9982 31.2365 56.1711 31.3132 56.3547 31.3325C56.5383 31.3517 56.7233 31.3123 56.8832 31.2201L59.1964 29.8845L61.4297 33.753L59.119 35.0872C58.9592 35.1795 58.8327 35.3198 58.7575 35.4883C58.6823 35.6567 58.6623 35.8446 58.7002 36.0251C58.9624 37.274 58.9624 38.5636 58.7002 39.8125C58.6622 39.993 58.6823 40.1809 58.7575 40.3494C58.8327 40.5179 58.9592 40.6582 59.119 40.7505L61.4297 42.0847L59.1962 45.9531ZM49.7472 32.2556C46.6246 32.2556 44.0841 34.7961 44.0841 37.9189C44.0841 41.0416 46.6246 43.582 49.7472 43.582C52.8699 43.582 55.4105 41.0416 55.4105 37.9189C55.4105 34.7961 52.87 32.2556 49.7472 32.2556ZM49.7472 41.832C47.5895 41.832 45.8341 40.0766 45.8341 37.9189C45.8341 35.7611 47.5895 34.0056 49.7472 34.0056C51.905 34.0056 53.6605 35.7611 53.6605 37.9189C53.6605 40.0766 51.905 41.832 49.7472 41.832Z" fill="white"></path></svg>