<svg xmlns="http://www.w3.org/2000/svg" width="64" height="64" viewBox="0 0 64 64" fill="none"><path d="M60.8 0H53.3333C52.7675 0 52.2249 0.224761 51.8248 0.624839C51.4248 1.02492 51.2 1.56754 51.2 2.13333V4.26667C51.2001 4.79118 51.3935 5.29725 51.7432 5.68822C52.0928 6.07919 52.5742 6.32765 53.0955 6.38613L49.2213 10.2624C44.3207 6.38011 38.2521 4.26759 32 4.26759C25.7479 4.26759 19.6793 6.38011 14.7787 10.2624L10.9045 6.38613C11.4258 6.32765 11.9072 6.07919 12.2569 5.68822C12.6065 5.29725 12.7999 4.79118 12.8 4.26667V2.13333C12.8 1.56754 12.5752 1.02492 12.1752 0.624839C11.7751 0.224761 11.2325 0 10.6667 0L3.2 0C2.35131 0 1.53737 0.337142 0.937258 0.937258C0.337142 1.53737 0 2.35131 0 3.2L0 10.6667C0 11.2325 0.224761 11.7751 0.624839 12.1752C1.02492 12.5752 1.56754 12.8 2.13333 12.8H4.26667C4.79118 12.7999 5.29725 12.6065 5.68822 12.2569C6.07919 11.9072 6.32765 11.4258 6.38613 10.9045L10.2624 14.7787C6.38011 19.6793 4.26759 25.7479 4.26759 32C4.26759 38.2521 6.38011 44.3207 10.2624 49.2213L6.38613 53.0955C6.32765 52.5742 6.07919 52.0928 5.68822 51.7432C5.29725 51.3935 4.79118 51.2001 4.26667 51.2H2.13333C1.56754 51.2 1.02492 51.4248 0.624839 51.8248C0.224761 52.2249 0 52.7675 0 53.3333L0 60.8C0 61.6487 0.337142 62.4626 0.937258 63.0627C1.53737 63.6629 2.35131 64 3.2 64H10.6667C11.2325 64 11.7751 63.7752 12.1752 63.3752C12.5752 62.9751 12.8 62.4325 12.8 61.8667V59.7333C12.7999 59.2088 12.6065 58.7027 12.2569 58.3118C11.9072 57.9208 11.4258 57.6724 10.9045 57.6139L14.7787 53.7376C19.6793 57.6199 25.7479 59.7324 32 59.7324C38.2521 59.7324 44.3207 57.6199 49.2213 53.7376L53.0955 57.6139C52.5742 57.6724 52.0928 57.9208 51.7432 58.3118C51.3935 58.7027 51.2001 59.2088 51.2 59.7333V61.8667C51.2 62.4325 51.4248 62.9751 51.8248 63.3752C52.2249 63.7752 52.7675 64 53.3333 64H60.8C61.6487 64 62.4626 63.6629 63.0627 63.0627C63.6629 62.4626 64 61.6487 64 60.8V53.3333C64 52.7675 63.7752 52.2249 63.3752 51.8248C62.9751 51.4248 62.4325 51.2 61.8667 51.2H59.7333C59.2088 51.2001 58.7027 51.3935 58.3118 51.7432C57.9208 52.0928 57.6724 52.5742 57.6139 53.0955L53.7376 49.2213C57.6199 44.3207 59.7324 38.2521 59.7324 32C59.7324 25.7479 57.6199 19.6793 53.7376 14.7787L57.6139 10.9045C57.6724 11.4258 57.9208 11.9072 58.3118 12.2569C58.7027 12.6065 59.2088 12.7999 59.7333 12.8H61.8667C62.4325 12.8 62.9751 12.5752 63.3752 12.1752C63.7752 11.7751 64 11.2325 64 10.6667V3.2C64 2.35131 63.6629 1.53737 63.0627 0.937258C62.4626 0.337142 61.6487 0 60.8 0ZM61.8667 10.6667H59.7333V8.34133C59.7333 8.1304 59.6707 7.92422 59.5535 7.74884C59.4363 7.57347 59.2697 7.43679 59.0748 7.35608C58.88 7.27536 58.6655 7.25424 58.4586 7.29538C58.2518 7.33652 58.0617 7.43807 57.9125 7.5872L51.5445 13.9552C51.355 14.145 51.2439 14.3993 51.2334 14.6673C51.2229 14.9354 51.3138 15.1976 51.488 15.4016C55.4331 20.0323 57.5999 25.9167 57.5999 32C57.5999 38.0833 55.4331 43.9677 51.488 48.5984C51.3138 48.8024 51.2229 49.0646 51.2334 49.3327C51.2439 49.6007 51.355 49.855 51.5445 50.0448L57.9125 56.4128C58.0617 56.5619 58.2518 56.6635 58.4586 56.7046C58.6655 56.7458 58.88 56.7246 59.0748 56.6439C59.2697 56.5632 59.4363 56.4265 59.5535 56.2512C59.6707 56.0758 59.7333 55.8696 59.7333 55.6587V53.3333H61.8667V60.8C61.8667 61.0829 61.7543 61.3542 61.5543 61.5543C61.3542 61.7543 61.0829 61.8667 60.8 61.8667H53.3333V59.7333H55.6587C55.8696 59.7333 56.0758 59.6707 56.2512 59.5535C56.4265 59.4363 56.5632 59.2697 56.6439 59.0748C56.7246 58.88 56.7458 58.6655 56.7046 58.4586C56.6635 58.2518 56.5619 58.0617 56.4128 57.9125L50.0448 51.5445C49.855 51.355 49.6007 51.2439 49.3327 51.2334C49.0646 51.2229 48.8024 51.3138 48.5984 51.488C43.9677 55.4331 38.0833 57.5999 32 57.5999C25.9167 57.5999 20.0323 55.4331 15.4016 51.488C15.1976 51.3138 14.9354 51.2229 14.6673 51.2334C14.3993 51.2439 14.145 51.355 13.9552 51.5445L7.5872 57.9125C7.43807 58.0617 7.33652 58.2518 7.29538 58.4586C7.25424 58.6655 7.27536 58.88 7.35608 59.0748C7.43679 59.2697 7.57347 59.4363 7.74884 59.5535C7.92422 59.6707 8.1304 59.7333 8.34133 59.7333H10.6667V61.8667H3.2C2.9171 61.8667 2.64579 61.7543 2.44575 61.5543C2.24571 61.3542 2.13333 61.0829 2.13333 60.8V53.3333H4.26667V55.6587C4.26671 55.8696 4.3293 56.0758 4.44651 56.2512C4.56371 56.4265 4.73029 56.5632 4.92517 56.6439C5.12005 56.7246 5.33448 56.7458 5.54137 56.7046C5.74825 56.6635 5.93829 56.5619 6.08747 56.4128L12.4555 50.0448C12.6451 49.855 12.7562 49.6007 12.7666 49.3327C12.7771 49.0646 12.6862 48.8024 12.512 48.5984C8.56691 43.9677 6.40015 38.0833 6.40015 32C6.40015 25.9167 8.56691 20.0323 12.512 15.4016C12.6862 15.1976 12.7771 14.9354 12.7666 14.6673C12.7562 14.3993 12.6451 14.145 12.4555 13.9552L6.08747 7.5872C5.93829 7.43807 5.74825 7.33652 5.54137 7.29538C5.33448 7.25424 5.12005 7.27536 4.92517 7.35608C4.73029 7.43679 4.56371 7.57347 4.44651 7.74884C4.3293 7.92422 4.26671 8.1304 4.26667 8.34133V10.6667H2.13333V3.2C2.13333 2.9171 2.24571 2.64579 2.44575 2.44575C2.64579 2.24571 2.9171 2.13333 3.2 2.13333H10.6667V4.26667H8.34133C8.1304 4.26671 7.92422 4.3293 7.74884 4.44651C7.57347 4.56371 7.43679 4.73029 7.35608 4.92517C7.27536 5.12005 7.25424 5.33448 7.29538 5.54137C7.33652 5.74825 7.43807 5.93829 7.5872 6.08747L13.9552 12.4555C14.145 12.6451 14.3993 12.7562 14.6673 12.7666C14.9354 12.7771 15.1976 12.6862 15.4016 12.512C20.0323 8.56691 25.9167 6.40015 32 6.40015C38.0833 6.40015 43.9677 8.56691 48.5984 12.512C48.8024 12.6862 49.0646 12.7771 49.3327 12.7666C49.6007 12.7562 49.855 12.6451 50.0448 12.4555L56.4128 6.08747C56.5619 5.93829 56.6635 5.74825 56.7046 5.54137C56.7458 5.33448 56.7246 5.12005 56.6439 4.92517C56.5632 4.73029 56.4265 4.56371 56.2512 4.44651C56.0758 4.3293 55.8696 4.26671 55.6587 4.26667H53.3333V2.13333H60.8C61.0829 2.13333 61.3542 2.24571 61.5543 2.44575C61.7543 2.64579 61.8667 2.9171 61.8667 3.2V10.6667Z" fill="white"></path><path d="M32 8.53333C27.3587 8.53333 22.8217 9.90962 18.9626 12.4882C15.1035 15.0667 12.0958 18.7317 10.3196 23.0197C8.54349 27.3077 8.07877 32.026 8.98424 36.5781C9.88971 41.1302 12.1247 45.3116 15.4066 48.5934C18.6884 51.8753 22.8698 54.1103 27.4219 55.0158C31.974 55.9212 36.6923 55.4565 40.9803 53.6804C45.2683 51.9042 48.9333 48.8965 51.5118 45.0374C54.0904 41.1783 55.4667 36.6413 55.4667 32C55.4596 25.7784 52.985 19.8137 48.5857 15.4143C44.1863 11.015 38.2216 8.54038 32 8.53333ZM32 53.3333C27.7807 53.3333 23.6561 52.0821 20.1478 49.738C16.6396 47.3939 13.9052 44.0621 12.2906 40.1639C10.6759 36.2657 10.2534 31.9763 11.0766 27.8381C11.8997 23.6998 13.9315 19.8986 16.9151 16.915C19.8986 13.9315 23.6998 11.8997 27.8381 11.0766C31.9763 10.2534 36.2658 10.6759 40.1639 12.2906C44.0621 13.9052 47.3939 16.6396 49.738 20.1478C52.0822 23.6561 53.3333 27.7807 53.3333 32C53.3268 37.656 51.0772 43.0784 47.0778 47.0778C43.0784 51.0771 37.656 53.3268 32 53.3333Z" fill="white"></path><path d="M31.9992 14.9336C25.6387 14.9336 19.1992 16.7661 19.1992 20.2669V42.6669C19.1992 46.1677 25.6387 48.0003 31.9992 48.0003C38.3598 48.0003 44.7992 46.1677 44.7992 42.6669V20.2669C44.7992 16.7661 38.3598 14.9336 31.9992 14.9336ZM31.9992 45.8669C25.5864 45.8669 21.3326 43.9405 21.3326 42.6669V38.2733C23.7486 39.7624 27.8851 40.5336 31.9992 40.5336C36.1134 40.5336 40.2499 39.7624 42.6659 38.2733V42.6669C42.6659 43.9405 38.412 45.8669 31.9992 45.8669ZM31.9992 38.4003C25.5864 38.4003 21.3326 36.4739 21.3326 35.2003V30.8067C23.7486 32.2957 27.8851 33.0669 31.9992 33.0669C36.1134 33.0669 40.2499 32.2957 42.6659 30.8067V35.2003C42.6659 36.4739 38.412 38.4003 31.9992 38.4003ZM31.9992 30.9336C25.5864 30.9336 21.3326 29.0072 21.3326 27.7336V23.34C23.7486 24.8291 27.8851 25.6003 31.9992 25.6003C36.1134 25.6003 40.2499 24.8291 42.6659 23.34V27.7336C42.6659 29.0072 38.412 30.9336 31.9992 30.9336ZM31.9992 23.4669C25.5864 23.4669 21.3326 21.5405 21.3326 20.2669C21.3326 18.9933 25.5864 17.0669 31.9992 17.0669C38.412 17.0669 42.6659 18.9933 42.6659 20.2669C42.6659 21.5405 38.412 23.4669 31.9992 23.4669Z" fill="white"></path></svg>