<svg xmlns="http://www.w3.org/2000/svg" width="64" height="30" viewBox="0 0 64 30" fill="none"><path d="M49.434 0.226074C44.69 0.226074 40.332 3.82007 36.708 7.09807C35.0657 8.58439 33.4959 10.1489 32.004 11.7861C30.5175 10.1457 28.9495 8.58108 27.306 7.09807C23.68 3.82007 19.328 0.226074 14.582 0.226074C6.54 0.226074 0 6.88207 0 15.0001C0 23.1181 6.54 29.7741 14.582 29.7741C19.328 29.7741 23.684 26.1801 27.306 22.9021C28.9475 21.417 30.5154 19.8524 32.004 18.2141C33.4938 19.8533 35.0637 21.4178 36.708 22.9021C40.334 26.1801 44.69 29.7741 49.434 29.7741C57.474 29.7741 64 23.1181 64 15.0001C64 6.88207 57.476 0.226074 49.434 0.226074ZM24.442 19.7421C21.072 22.7841 16.714 25.5041 14.582 25.5041C8.878 25.5041 4.266 20.8441 4.266 15.0001C4.266 9.15607 8.882 4.49607 14.582 4.49607C16.71 4.49607 21.072 7.21407 24.442 10.2581C27.058 12.6221 28.222 14.0541 29.044 15.0001C28.22 15.9461 27.056 17.3781 24.442 19.7421ZM49.434 25.5041C47.306 25.5041 42.942 22.7861 39.572 19.7421C36.962 17.3821 35.794 15.9461 34.972 15.0001C35.794 14.0541 36.962 12.6181 39.572 10.2581C42.942 7.21607 47.302 4.49607 49.434 4.49607C55.138 4.49607 59.732 9.15607 59.732 15.0001C59.732 20.8441 55.136 25.5041 49.434 25.5041Z" fill="black"></path></svg>