<svg xmlns="http://www.w3.org/2000/svg" width="76" height="58" viewBox="0 0 76 58" fill="none"><path d="M70.1696 57.416H5.8304C2.6152 57.416 0 54.8 0 51.5856V6.41438C0 3.19918 2.616 0.583984 5.8304 0.583984H70.1696C73.3848 0.583984 76 3.19998 76 6.41438V51.5856C76 54.8008 73.384 57.416 70.1696 57.416ZM5.8304 4.20318C5.24415 4.20382 4.68209 4.43699 4.26755 4.85153C3.853 5.26607 3.61984 5.82813 3.6192 6.41438V51.5856C3.61984 52.1718 3.853 52.7339 4.26755 53.1484C4.68209 53.563 5.24415 53.7962 5.8304 53.7968H70.1696C70.7559 53.7962 71.3179 53.563 71.7325 53.1484C72.147 52.7339 72.3802 52.1718 72.3808 51.5856V6.41438C72.3802 5.82813 72.147 5.26607 71.7325 4.85153C71.3179 4.43699 70.7559 4.20382 70.1696 4.20318H5.8304Z" fill="black"></path><path d="M1.80957 12.728H74.1904V16.3472H1.80957V12.728ZM48.8568 10.2752H46.78C46.3 10.2752 45.8398 10.0845 45.5004 9.74517C45.161 9.4058 44.9704 8.94553 44.9704 8.46559C44.9704 7.98566 45.161 7.52538 45.5004 7.18601C45.8398 6.84664 46.3 6.65599 46.78 6.65599H48.8568C49.3367 6.65599 49.797 6.84664 50.1364 7.18601C50.4757 7.52538 50.6664 7.98566 50.6664 8.46559C50.6664 8.94553 50.4757 9.4058 50.1364 9.74517C49.797 10.0845 49.3367 10.2752 48.8568 10.2752ZM58.0392 10.2752H55.96C55.48 10.2752 55.0198 10.0845 54.6804 9.74517C54.341 9.4058 54.1504 8.94553 54.1504 8.46559C54.1504 7.98566 54.341 7.52538 54.6804 7.18601C55.0198 6.84664 55.48 6.65599 55.96 6.65599H58.0384C58.5183 6.65599 58.9786 6.84664 59.318 7.18601C59.6573 7.52538 59.848 7.98566 59.848 8.46559C59.848 8.94553 59.6573 9.4058 59.318 9.74517C58.9786 10.0845 58.5183 10.2752 58.0384 10.2752H58.0392ZM67.22 10.2752H65.144C64.664 10.2752 64.2038 10.0845 63.8644 9.74517C63.525 9.4058 63.3344 8.94553 63.3344 8.46559C63.3344 7.98566 63.525 7.52538 63.8644 7.18601C64.2038 6.84664 64.664 6.65599 65.144 6.65599H67.2208C67.7007 6.65599 68.161 6.84664 68.5003 7.18601C68.8397 7.52538 69.0304 7.98566 69.0304 8.46559C69.0304 8.94553 68.8397 9.4058 68.5003 9.74517C68.161 10.0845 67.6999 10.2752 67.22 10.2752Z" fill="black"></path></svg>