<svg xmlns="http://www.w3.org/2000/svg" width="56" height="64" viewBox="0 0 56 64" fill="none"><path d="M1.66016 36.9463L22.7444 50.1384C25.9839 52.1653 30.0124 52.1653 33.2519 50.1384L54.3361 36.9463" stroke="black" stroke-width="2.8" stroke-miterlimit="10" stroke-linecap="round" stroke-linejoin="round"></path><path d="M1.66016 26.6698L22.7444 39.8619C25.9839 41.8889 30.0125 41.8889 33.2519 39.8619L54.3362 26.6698" stroke="black" stroke-width="2.8" stroke-miterlimit="10" stroke-linecap="round" stroke-linejoin="round"></path><path d="M2.32812 16.8115L22.7447 29.5859C25.9841 31.6128 30.0127 31.6128 33.2522 29.5859L53.6687 16.8115" stroke="black" stroke-width="2.8" stroke-miterlimit="10" stroke-linecap="round" stroke-linejoin="round"></path><path d="M1.66026 19.4858C1.66026 17.5692 2.61778 15.7948 4.1793 14.8178L22.7444 3.20187C25.9838 1.1749 30.0124 1.1749 33.2519 3.20187L51.8171 14.8178C53.3786 15.7948 54.3361 17.5692 54.3361 19.4858V44.13C54.3361 46.0466 53.3786 47.8209 51.8171 48.7979L33.2519 60.4139C30.0124 62.4409 25.9838 62.4409 22.7444 60.4139L4.1793 48.7979C2.61778 47.8209 1.66026 46.0466 1.66026 44.13V19.4858Z" stroke="black" stroke-width="2.8" stroke-miterlimit="10" stroke-linecap="round" stroke-linejoin="round"></path></svg>