<svg xmlns="http://www.w3.org/2000/svg" width="63" height="64" viewBox="0 0 63 64" fill="none"><path d="M62.2226 26.8787L49.8087 18.8789C49.7116 18.8171 49.6046 18.7937 49.5002 18.7592V16.0001C49.5003 15.825 49.4659 15.6515 49.3989 15.4897C49.3319 15.3279 49.2337 15.1808 49.1098 15.057C48.986 14.9331 48.839 14.8349 48.6771 14.7679C48.5153 14.701 48.3418 14.6665 48.1667 14.6666H43.2157L32.874 8.20297C32.6621 8.07018 32.4171 7.99976 32.167 7.99976C31.9169 7.99976 31.6719 8.07018 31.46 8.20297L21.1182 14.6666H14.8338C14.6586 14.6665 14.4852 14.701 14.3234 14.7679C14.1615 14.8349 14.0145 14.9331 13.8907 15.057C13.7668 15.1808 13.6686 15.3279 13.6016 15.4897C13.5346 15.6515 13.5002 15.825 13.5003 16.0001V18.7584C13.3959 18.793 13.2885 18.8167 13.1918 18.8789L0.777901 26.8787C0.590635 26.9997 0.436634 27.1657 0.329929 27.3614C0.223225 27.5572 0.167211 27.7766 0.166992 27.9996V62.666C0.166892 62.8411 0.201314 63.0146 0.268292 63.1764C0.335271 63.3382 0.433491 63.4853 0.557336 63.6091C0.681182 63.733 0.828224 63.8312 0.990056 63.8982C1.15189 63.9651 1.32533 63.9996 1.50048 63.9995H61.5C61.6752 63.9996 61.8486 63.9651 62.0104 63.8982C62.1723 63.8312 62.3193 63.733 62.4432 63.6091C62.567 63.4853 62.6652 63.3382 62.7322 63.1764C62.7992 63.0146 62.8336 62.8411 62.8335 62.666V28C62.8335 27.5468 62.6029 27.125 62.2226 26.8787ZM32.1672 10.9064L38.1846 14.6666H26.1498L32.1672 10.9064ZM16.1673 17.3332H46.8336V47.333C46.8336 47.3368 46.8359 47.3399 46.8359 47.3441L42.3255 50.0829L31.4719 44.1629C31.272 44.0544 31.0479 43.9987 30.8205 44.0009C30.5931 44.0032 30.3701 44.0635 30.1725 44.176L20.2683 49.8357L16.1654 47.3445C16.1654 47.3407 16.1677 47.3376 16.1677 47.3338L16.1673 17.3332ZM2.83396 28.7264L13.5003 21.8536V45.7267L2.83396 39.25V28.7264ZM2.83396 42.3686L17.622 51.3469L2.83396 59.7975V42.3686ZM5.52089 61.3332L30.8494 46.8606L57.3829 61.3332H5.52089ZM60.1669 59.814L45.0308 51.5583L60.1669 42.3682V59.814ZM60.1669 39.25L49.5002 45.7263V21.8536L60.1669 28.7268V39.25Z" fill="#7D3CF3"></path><path d="M21.5012 30.6666H37.5012C37.6763 30.6667 37.8497 30.6323 38.0116 30.5653C38.1734 30.4983 38.3204 30.4001 38.4443 30.2763C38.5681 30.1524 38.6664 30.0054 38.7333 29.8435C38.8003 29.6817 38.8347 29.5083 38.8346 29.3331V21.3334C38.8347 21.1582 38.8003 20.9848 38.7333 20.8229C38.6664 20.6611 38.5681 20.5141 38.4443 20.3902C38.3204 20.2664 38.1734 20.1682 38.0116 20.1012C37.8497 20.0342 37.6763 19.9998 37.5012 19.9999H21.5012C21.3261 19.9998 21.1527 20.0342 20.9908 20.1012C20.829 20.1682 20.6819 20.2664 20.5581 20.3902C20.4343 20.5141 20.336 20.6611 20.2691 20.8229C20.2021 20.9848 20.1677 21.1582 20.1678 21.3334V29.3331C20.1677 29.5083 20.2021 29.6817 20.2691 29.8435C20.336 30.0054 20.4343 30.1524 20.5581 30.2763C20.6819 30.4001 20.829 30.4983 20.9908 30.5653C21.1527 30.6323 21.3261 30.6667 21.5012 30.6666ZM22.8343 22.6665H36.1677V27.9996H22.8343V22.6665ZM20.1678 33.3332H41.5008V35.9998H20.1678V33.3332ZM20.1678 38.6668H41.5008V41.3333H20.1678V38.6668ZM56.1676 16.0002C56.5088 16.0002 56.8499 15.8701 57.1105 15.6096L61.8239 10.8961C61.9477 10.7723 62.0459 10.6254 62.1129 10.4636C62.1799 10.3019 62.2144 10.1285 62.2144 9.95346C62.2144 9.7784 62.1799 9.60505 62.1129 9.44331C62.0459 9.28157 61.9477 9.1346 61.8239 9.01081C61.7001 8.88702 61.5532 8.78883 61.3914 8.72183C61.2297 8.65484 61.0563 8.62036 60.8813 8.62036C60.7062 8.62036 60.5329 8.65484 60.3711 8.72183C60.2094 8.78883 60.0624 8.88702 59.9386 9.01081L55.2252 13.7243C55.0385 13.9106 54.9113 14.1481 54.8597 14.4068C54.8081 14.6655 54.8345 14.9337 54.9354 15.1774C55.0363 15.4211 55.2073 15.6293 55.4266 15.7758C55.646 15.9223 55.9039 16.0004 56.1676 16.0002ZM5.89198 15.6096C6.01564 15.7336 6.1626 15.832 6.32441 15.899C6.48622 15.966 6.65968 16.0004 6.83483 16.0002C7.09863 16.0005 7.35657 15.9224 7.57599 15.776C7.79541 15.6295 7.96643 15.4213 8.06739 15.1775C8.16836 14.9338 8.19472 14.6656 8.14314 14.4069C8.09157 14.1482 7.96437 13.9106 7.77767 13.7243L3.06384 9.01081C2.81384 8.76081 2.47476 8.62036 2.12119 8.62036C1.76763 8.62036 1.42855 8.76081 1.17854 9.01081C0.928538 9.26082 0.788086 9.5999 0.788086 9.95346C0.788086 10.307 0.928538 10.6461 1.17854 10.8961L5.89198 15.6096ZM45.0063 9.23837C45.1689 9.30337 45.3427 9.3357 45.5178 9.33351C45.6929 9.33131 45.8659 9.29463 46.0268 9.22557C46.1878 9.15651 46.3335 9.05641 46.4557 8.93101C46.578 8.8056 46.6743 8.65734 46.7392 8.49469L49.4058 1.82803C49.5311 1.50088 49.5227 1.13755 49.3822 0.816592C49.2418 0.495632 48.9807 0.242822 48.6554 0.112808C48.3301 -0.017206 47.9667 -0.0139787 47.6438 0.121792C47.3208 0.257563 47.0643 0.514971 46.9296 0.838374L44.263 7.50503C44.198 7.66765 44.1656 7.84148 44.1678 8.0166C44.1699 8.19172 44.2066 8.3647 44.2756 8.52566C44.3446 8.68662 44.4447 8.83241 44.57 8.95469C44.6954 9.07698 44.8437 9.17338 45.0063 9.23837ZM17.5963 8.49507C17.6612 8.65775 17.7575 8.80604 17.8798 8.93146C18.002 9.05689 18.1478 9.15698 18.3087 9.22601C18.4697 9.29505 18.6427 9.33168 18.8178 9.3338C18.9929 9.33592 19.1667 9.30349 19.3293 9.23837C19.6576 9.1071 19.9204 8.85079 20.0598 8.52581C20.1992 8.20083 20.2038 7.83379 20.0726 7.50541L17.406 0.838757C17.2713 0.515354 17.0148 0.257947 16.6918 0.122176C16.3689 -0.013595 16.0055 -0.0168223 15.6801 0.113192C15.3548 0.243206 15.0937 0.496016 14.9533 0.816976C14.8129 1.13794 14.8044 1.50126 14.9298 1.82841L17.5963 8.49507Z" fill="#7D3CF3"></path></svg>