<svg xmlns="http://www.w3.org/2000/svg" width="20" height="20" viewBox="0 0 20 20" fill="none"><g clip-path="url(#clip0_8041_20998)"><path fill-rule="evenodd" clip-rule="evenodd" d="M10 0C4.48438 0 0 4.48438 0 10C0 15.5156 4.48438 20 10 20C15.5156 20 20 15.5156 20 10C20 4.48438 15.5156 0 10 0Z" fill="#7D3CF3"></path><path d="M14.4796 6.97962L14.4796 6.97963L14.4824 6.98246C14.5293 7.02939 14.5293 7.11124 14.4824 7.15817L8.62301 13.0175C8.59791 13.0426 8.56588 13.0547 8.53516 13.0547C8.50443 13.0547 8.47241 13.0426 8.4473 13.0175L5.51762 10.0879C5.47069 10.0409 5.47069 9.95907 5.51762 9.91215C5.56454 9.86522 5.6464 9.86522 5.69332 9.91215L8.1816 12.4004L8.53516 12.754L8.88871 12.4004L14.3067 6.98246L14.3067 6.98247L14.3095 6.97962C14.3558 6.93257 14.4333 6.93257 14.4796 6.97962Z" fill="white" stroke="white"></path></g><defs><clipPath id="clip0_8041_20998"><rect width="20" height="20" fill="white"></rect></clipPath></defs></svg>