<svg xmlns="http://www.w3.org/2000/svg" width="16" height="20" viewBox="0 0 16 20" fill="none"><path d="M8.00028 0C4.06171 0 0.857422 3.15422 0.857422 7.03125C0.857422 8.34117 1.22603 9.61953 1.92365 10.7286L7.59369 19.723C7.7023 19.8953 7.89365 20 8.09945 20C8.10103 20 8.10258 20 8.10417 20C8.31175 19.9984 8.50349 19.8905 8.61012 19.7152L14.1356 10.6336C14.7948 9.54797 15.1431 8.30231 15.1431 7.03125C15.1431 3.15422 11.9389 0 8.00028 0ZM13.114 10.032L8.09044 18.2885L2.93548 10.1112C2.3548 9.18805 2.03996 8.12305 2.03996 7.03125C2.03996 3.80039 4.71814 1.16406 8.00028 1.16406C11.2824 1.16406 13.9566 3.80039 13.9566 7.03125C13.9566 8.09066 13.6625 9.12844 13.114 10.032Z" fill="white"></path><path d="M8.00038 3.51562C6.0311 3.51562 4.42896 5.09273 4.42896 7.03125C4.42896 8.95738 6.00503 10.5469 8.00038 10.5469C10.0203 10.5469 11.5718 8.93621 11.5718 7.03125C11.5718 5.09273 9.96967 3.51562 8.00038 3.51562ZM8.00038 9.38281C6.68066 9.38281 5.61149 8.32684 5.61149 7.03125C5.61149 5.73891 6.68753 4.67969 8.00038 4.67969C9.31324 4.67969 10.3853 5.73891 10.3853 7.03125C10.3853 8.30793 9.34102 9.38281 8.00038 9.38281Z" fill="white"></path></svg>