<svg xmlns="http://www.w3.org/2000/svg" width="64" height="64" viewBox="0 0 64 64" fill="none"><g clip-path="url(#clip0_42_313)"><path d="M15.3438 34.9549V32.2554C15.3438 29.5972 17.9224 27.4425 21.1034 27.4425H28.1195C30.194 27.4425 31.8756 29.1241 31.8756 31.1986C31.8756 33.2731 30.194 34.9547 28.1195 34.9547H21.9947M40.3699 40.5094C42.2536 41.3766 44.4837 40.5526 45.351 38.6689L48.3087 32.2441C49.176 30.3604 48.352 28.1302 46.4681 27.263C44.5844 26.3957 42.3542 27.2197 41.487 29.1036L38.5292 35.5284C37.6621 37.412 38.4861 39.6421 40.3699 40.5094Z" stroke="#7D3CF3" stroke-width="2.8" stroke-miterlimit="10"></path><path d="M33.3686 28.7577L36.3264 22.333C37.1936 20.4492 36.3696 18.2191 34.4857 17.3519C32.602 16.4846 30.3719 17.3086 29.5046 19.1925L26.5469 25.6172M33.2935 37.9261C35.1772 38.7934 37.4074 37.9694 38.2746 36.0856L42.4839 26.9425C43.4089 24.9334 42.4181 22.9951 40.6432 21.9614C38.7595 21.0941 36.5294 21.9181 35.6621 23.802L31.453 32.9451C30.5857 34.8289 31.4097 37.059 33.2935 37.9261Z" stroke="#7D3CF3" stroke-width="2.8" stroke-miterlimit="10"></path><path d="M25.7333 27.4527L29.9425 18.3095C30.8675 16.3004 29.8768 14.3622 28.1019 13.3284C26.2181 12.4612 23.988 13.2852 23.1208 15.169L16.6969 29.157M41.3453 60.3213V51.4415C43.2591 50.2869 44.5393 48.1879 44.5393 45.7892V39.8083M15.3438 34.6239V43.1119C15.3438 45.8502 16.5313 48.3097 18.4179 50.0072V58.8962M31.8763 36.7913V48.0419" stroke="#7D3CF3" stroke-width="2.8" stroke-miterlimit="10"></path><path d="M32 62.125C48.6376 62.125 62.125 48.6376 62.125 32C62.125 15.3624 48.6376 1.875 32 1.875C15.3624 1.875 1.875 15.3624 1.875 32C1.875 48.6376 15.3624 62.125 32 62.125Z" stroke="#7D3CF3" stroke-width="2.8" stroke-miterlimit="10"></path></g><defs><clipPath id="clip0_42_313"><rect width="64" height="64" fill="white"></rect></clipPath></defs></svg>