<svg xmlns="http://www.w3.org/2000/svg" width="94" height="71" viewBox="0 0 94 71" fill="none"><path d="M43.3552 52.6917C43.4646 55.1749 43.0117 57.651 42.0288 59.9439C41.0459 62.2368 39.5571 64.29 37.6685 65.9574L37.6536 65.969C33.7441 69.3521 28.6527 71.1406 23.4309 70.9652L23.4637 70.9652C20.3074 71.1317 17.1523 70.6179 14.2224 69.4603C11.2925 68.3026 8.65972 66.5294 6.51115 64.2667L6.49921 64.2551C2.19175 59.2665 -0.00529643 52.8631 0.355543 46.3489L0.352552 46.4101C0.152379 39.6452 1.44073 32.917 4.13075 26.6792L4.01127 26.9911C6.15911 22.1011 9.13797 17.6003 12.8221 13.6788L12.7892 13.7138C15.8344 10.4896 19.363 7.73482 23.2547 5.54333L23.4697 5.43256C26.413 3.7754 29.4848 2.34565 32.6568 1.15642L33.1228 1.00193L42.4831 16.4217C38.5934 17.9533 35.1792 20.4467 32.5762 23.6565L32.5374 23.706C29.9455 26.7192 28.3198 30.4103 27.8632 34.3191L27.8542 34.4124C29.891 34.4622 31.8941 34.9315 33.7321 35.7894C35.5701 36.6474 37.2016 37.8748 38.5197 39.3911L38.5377 39.4115C41.8891 43.0533 43.6228 47.8443 43.3582 52.7325L43.3612 52.6888L43.3552 52.6917ZM93.974 52.6917C94.0817 55.1749 93.6278 57.6509 92.6445 59.9436C91.6611 62.2363 90.1725 64.2895 88.2843 65.9574L88.2694 65.969C84.3607 69.3534 79.2687 71.1421 74.0467 70.9652L74.0795 70.9652C70.9231 71.1325 67.7677 70.6191 64.8377 69.4614C61.9077 68.3036 59.275 66.5301 57.127 64.2667L57.115 64.2522C52.8058 59.2634 50.6085 52.8584 50.9713 46.3431L50.9684 46.4043C50.7682 39.6394 52.0565 32.9112 54.7465 26.6734L54.6271 26.9853C56.7739 22.0954 59.7517 17.5946 63.4349 13.673L63.402 13.7079C66.4483 10.4837 69.9779 7.72893 73.8705 5.53749L74.0855 5.42673C77.0282 3.7684 80.1001 2.3386 83.2726 1.15058L83.7386 0.996095L93.0959 16.4159C89.2057 17.9494 85.7915 20.4447 83.189 23.6565L83.1502 23.706C80.5583 26.7192 78.9327 30.4103 78.476 34.3191L78.467 34.4124C80.503 34.4619 82.5053 34.9311 84.3424 35.7891C86.1795 36.6471 87.8099 37.8746 89.1266 39.3911L89.1445 39.4115C92.4995 43.0506 94.2367 47.8409 93.974 52.7296L93.977 52.6859L93.974 52.6917Z" fill="white" fill-opacity="0.1"></path></svg>