<svg xmlns="http://www.w3.org/2000/svg" width="80" height="81" viewBox="0 0 80 81" fill="none"><g mask="url(#mask0_155_957)"><path d="M3.91571 76.5843C1.82009 74.4887 1.82009 71.091 3.91571 68.9956L17.6446 55.2665C19.7402 53.1709 23.1378 53.1709 25.2335 55.2665C27.3291 57.3622 27.3291 60.7598 25.2335 62.8554L11.5044 76.5843C9.40897 78.6799 6.01133 78.6799 3.91571 76.5843Z" stroke="#F3D465" stroke-width="4" stroke-miterlimit="10" stroke-linecap="round"></path><path d="M25.2334 55.2664L33.881 46.6189" stroke="#F3D465" stroke-width="4" stroke-miterlimit="10"></path><path d="M70.1455 46.6192C80.1596 36.6051 80.1596 20.3689 70.1455 10.3547C60.1313 0.340323 43.8951 0.340323 33.8809 10.3547C23.8665 20.3689 23.8665 36.6051 33.8809 46.6192C43.8951 56.6334 60.1313 56.6334 70.1455 46.6192Z" stroke="#F3D465" stroke-width="4" stroke-miterlimit="10" stroke-linecap="round"></path><path d="M40.1382 38.4873V30.9865" stroke="#F3D465" stroke-width="4" stroke-miterlimit="10" stroke-linecap="round"></path><path d="M47.9507 38.4873V23.1741" stroke="#F3D465" stroke-width="4" stroke-miterlimit="10" stroke-linecap="round"></path><path d="M55.7629 38.4873V26.2991" stroke="#F3D465" stroke-width="4" stroke-miterlimit="10" stroke-linecap="round"></path><path d="M63.5754 38.4873V18.4866" stroke="#F3D465" stroke-width="4" stroke-miterlimit="10" stroke-linecap="round"></path></g></svg>