<svg xmlns="http://www.w3.org/2000/svg" width="76" height="76" viewBox="0 0 76 76" fill="none"><path d="M61.2837 23.9413L53.3337 15.9913C53.17 15.8261 52.9633 15.71 52.7371 15.6558C52.5109 15.6017 52.2741 15.6118 52.0532 15.6849C51.8324 15.758 51.6364 15.8913 51.4872 16.0698C51.338 16.2482 51.2416 16.4648 51.2088 16.695C51.0773 17.6142 50.6925 18.4786 50.0975 19.1914C49.5025 19.9041 48.7208 20.4372 47.8399 20.7307C46.959 21.0243 46.0138 21.0667 45.1102 20.8534C44.2065 20.64 43.3801 20.1793 42.7236 19.5227C42.067 18.8662 41.6063 18.0398 41.3929 17.1361C41.1796 16.2325 41.222 15.2873 41.5156 14.4064C41.8091 13.5255 42.3422 12.7438 43.0549 12.1488C43.7677 11.5538 44.6321 11.169 45.5513 11.0375C45.7815 11.0047 45.9981 10.9083 46.1765 10.7591C46.355 10.6099 46.4883 10.4139 46.5614 10.193C46.6345 9.97223 46.6446 9.7354 46.5905 9.50918C46.5363 9.28296 46.4202 9.07634 46.255 8.91254L38.305 0.962541C38.0706 0.728202 37.7527 0.596558 37.4213 0.596558C37.0898 0.596558 36.7719 0.728202 36.5375 0.962541L29.6337 7.86379C29.2938 6.59152 28.6249 5.43119 27.6942 4.49947C26.7636 3.56775 25.604 2.8975 24.3321 2.55612C23.0603 2.21474 21.7209 2.21426 20.4488 2.55474C19.1767 2.89522 18.0166 3.56465 17.0853 4.49571C16.154 5.42677 15.4843 6.58663 15.1435 7.85866C14.8026 9.13068 14.8027 10.47 15.1438 11.742C15.4848 13.014 16.1547 14.1737 17.0862 15.1046C18.0177 16.0355 19.1778 16.7048 20.45 17.045L13.5537 23.9413C13.3194 24.1757 13.1878 24.4936 13.1878 24.825C13.1878 25.1565 13.3194 25.4744 13.5537 25.7088L20.4525 32.6163C18.9381 33.0231 17.5893 33.8944 16.5957 35.1076C15.6022 36.3208 15.0139 37.8149 14.9136 39.3798C14.8133 40.9447 15.206 42.5017 16.0366 43.8318C16.8671 45.1619 18.0937 46.1982 19.5438 46.795L16.625 55.2138C16.2373 56.0873 16.055 57.0382 16.0923 57.9932C16.1296 58.9481 16.3854 59.8819 16.84 60.7225L21.2275 71.0975C21.2437 71.1375 21.2625 71.1763 21.2838 71.2138C21.591 71.777 21.7514 72.4085 21.75 73.05V74.25C21.75 74.5816 21.8817 74.8995 22.1161 75.1339C22.3505 75.3683 22.6685 75.5 23 75.5C23.3315 75.5 23.6495 75.3683 23.8839 75.1339C24.1183 74.8995 24.25 74.5816 24.25 74.25V73.05C24.2487 72.0102 23.9911 70.9867 23.5 70.07L19.1112 59.695C19.0938 59.6522 19.0738 59.6104 19.0512 59.57C18.7648 59.0471 18.6055 58.4641 18.5864 57.8682C18.5673 57.2723 18.6889 56.6802 18.9413 56.14L21.9987 47.34C22.13 47.34 22.2588 47.3588 22.3913 47.3588C24.041 47.3602 25.6451 46.8167 26.9541 45.8126C28.2632 44.8085 29.2039 43.4001 29.63 41.8063L31.75 43.9175V56.75C31.75 57.0816 31.8817 57.3995 32.1161 57.6339C32.3505 57.8683 32.6685 58 33 58C33.3315 58 33.6495 57.8683 33.8839 57.6339C34.1183 57.3995 34.25 57.0816 34.25 56.75V39.25C34.25 38.2555 34.6451 37.3017 35.3483 36.5984C36.0516 35.8951 37.0054 35.5 38 35.5C38.9946 35.5 39.9484 35.8951 40.6516 36.5984C41.3549 37.3017 41.75 38.2555 41.75 39.25V54.3888C41.7522 56.135 42.1586 57.8571 42.9375 59.42L43.395 60.3375C43.9999 61.5531 44.3146 62.8923 44.3146 64.25C44.3146 65.6078 43.9999 66.947 43.395 68.1625L42.145 70.6625C41.8855 71.1837 41.7503 71.7579 41.75 72.34V74.25C41.75 74.5816 41.8817 74.8995 42.1161 75.1339C42.3505 75.3683 42.6685 75.5 43 75.5C43.3315 75.5 43.6495 75.3683 43.8839 75.1339C44.1183 74.8995 44.25 74.5816 44.25 74.25V72.34C44.2487 72.1467 44.2915 71.9556 44.375 71.7813L45.625 69.2813C46.4025 67.7183 46.8071 65.9964 46.8071 64.2507C46.8071 62.505 46.4025 60.783 45.625 59.22L45.1675 58.3025C44.7193 57.4024 44.4289 56.4321 44.3088 55.4338C45.1206 56.2486 46.0856 56.8948 47.1481 57.3352C48.2106 57.7756 49.3498 58.0016 50.5 58C51.4946 58 52.4484 57.605 53.1516 56.9017C53.8549 56.1984 54.25 55.2446 54.25 54.25V47.125C55.8633 46.7258 57.2982 45.8016 58.3287 44.4976C59.3592 43.1937 59.9269 41.5841 59.9425 39.9222C59.9581 38.2603 59.4207 36.6404 58.4149 35.3173C57.409 33.9943 55.9918 33.0432 54.3863 32.6138L61.2837 25.7063C61.5173 25.472 61.6485 25.1546 61.6485 24.8238C61.6485 24.4929 61.5173 24.1756 61.2837 23.9413ZM50.5 55.5C48.843 55.4981 47.2544 54.8389 46.0828 53.6673C44.9111 52.4956 44.252 50.907 44.25 49.25V42.75L45.205 41.795C45.599 43.2753 46.4379 44.599 47.6084 45.5871C48.7789 46.5752 50.2246 47.1801 51.75 47.32V54.25C51.75 54.5816 51.6183 54.8995 51.3839 55.1339C51.1495 55.3683 50.8315 55.5 50.5 55.5ZM50.6788 32.7913C50.4912 32.9767 50.367 33.2168 50.3242 33.477C50.2813 33.7373 50.3218 34.0045 50.44 34.2403C50.5582 34.4761 50.748 34.6685 50.9822 34.7899C51.2163 34.9114 51.4829 34.9556 51.7437 34.9163C52.7823 34.7693 53.8407 34.9526 54.7693 35.4403C55.6979 35.928 56.4496 36.6954 56.918 37.6338C57.3865 38.5722 57.5479 39.6342 57.3796 40.6695C57.2112 41.7047 56.7216 42.6608 55.9799 43.4025C55.2383 44.1441 54.2822 44.6338 53.2469 44.8021C52.2117 44.9705 51.1497 44.809 50.2113 44.3405C49.2728 43.8721 48.5055 43.1204 48.0178 42.1918C47.5301 41.2632 47.3468 40.2048 47.4938 39.1663C47.533 38.9055 47.4888 38.6389 47.3674 38.4047C47.246 38.1705 47.0536 37.9808 46.8178 37.8626C46.5819 37.7444 46.3148 37.7038 46.0545 37.7467C45.7942 37.7896 45.5542 37.9137 45.3688 38.1013L44.25 39.2225C44.2464 37.5649 43.5844 35.9767 42.4097 34.8072C41.235 33.6376 39.6439 32.9826 37.9863 32.9863C36.3286 32.9899 34.7404 33.6519 33.5709 34.8266C32.4013 36.0013 31.7464 37.5924 31.75 39.25V40.3825L29.4587 38.0913C29.2733 37.9037 29.0333 37.7796 28.773 37.7367C28.5127 37.6938 28.2456 37.7344 28.0097 37.8526C27.7739 37.9708 27.5815 38.1605 27.4601 38.3947C27.3387 38.6289 27.2945 38.8955 27.3337 39.1563C27.4807 40.1948 27.2974 41.2532 26.8097 42.1818C26.322 43.1104 25.5547 43.8621 24.6162 44.3305C23.6778 44.799 22.6158 44.9605 21.5806 44.7921C20.5453 44.6238 19.5892 44.1341 18.8476 43.3925C18.1059 42.6508 17.6163 41.6947 17.4479 40.6595C17.2796 39.6242 17.441 38.5622 17.9095 37.6238C18.3779 36.6854 19.1296 35.918 20.0582 35.4303C20.9868 34.9426 22.0452 34.7593 23.0837 34.9063C23.3447 34.9459 23.6115 34.9019 23.8459 34.7806C24.0803 34.6593 24.2703 34.467 24.3887 34.2311C24.507 33.9952 24.5477 33.7278 24.5048 33.4674C24.462 33.207 24.3377 32.9668 24.15 32.7813L16.2037 24.825L24.1588 16.875C24.3463 16.6896 24.4705 16.4496 24.5133 16.1893C24.5562 15.929 24.5157 15.6618 24.3975 15.426C24.2793 15.1902 24.0895 14.9978 23.8553 14.8764C23.6212 14.755 23.3546 14.7107 23.0938 14.75C22.0566 14.895 21.0001 14.7106 20.0734 14.223C19.1466 13.7353 18.3964 12.969 17.9285 12.0321C17.4606 11.0952 17.2987 10.0351 17.4656 9.00126C17.6325 7.96742 18.1198 7.01209 18.8588 6.27004C19.8118 5.36217 21.0775 4.85576 22.3937 4.85576C23.71 4.85576 24.9757 5.36217 25.9288 6.27004C26.4758 6.81849 26.8879 7.48653 27.1326 8.22147C27.3772 8.95641 27.4478 9.73815 27.3388 10.505C27.2995 10.7659 27.3437 11.0325 27.4651 11.2666C27.5865 11.5008 27.7789 11.6906 28.0147 11.8088C28.2506 11.9269 28.5177 11.9675 28.778 11.9246C29.0383 11.8817 29.2783 11.7576 29.4637 11.57L37.425 3.61754L43.0262 9.22004C41.9435 9.73714 41.0007 10.5065 40.2769 11.4634C39.5531 12.4203 39.0694 13.537 38.8665 14.7195C38.6636 15.9021 38.7474 17.1161 39.1108 18.2596C39.4743 19.4031 40.1068 20.4427 40.9552 21.2911C41.8036 22.1395 42.8432 22.772 43.9867 23.1355C45.1302 23.4989 46.3442 23.5827 47.5267 23.3798C48.7093 23.1769 49.826 22.6932 50.7829 21.9694C51.7398 21.2456 52.5092 20.3028 53.0262 19.22L58.6287 24.8213L50.6788 32.7913ZM74.25 26.75H66.75C66.4185 26.75 66.1005 26.6183 65.8661 26.3839C65.6317 26.1495 65.5 25.8316 65.5 25.5C65.5 25.1685 65.6317 24.8506 65.8661 24.6162C66.1005 24.3817 66.4185 24.25 66.75 24.25H74.25C74.5815 24.25 74.8995 24.3817 75.1339 24.6162C75.3683 24.8506 75.5 25.1685 75.5 25.5C75.5 25.8316 75.3683 26.1495 75.1339 26.3839C74.8995 26.6183 74.5815 26.75 74.25 26.75ZM65.3987 12.375C65.1236 12.375 64.8561 12.2842 64.6378 12.1167C64.4195 11.9492 64.2626 11.7144 64.1914 11.4486C64.1202 11.1828 64.1387 10.9009 64.2439 10.6467C64.3492 10.3925 64.5355 10.1801 64.7737 10.0425L71.2737 6.29254C71.5607 6.12939 71.9005 6.08637 72.2191 6.17285C72.5376 6.25934 72.809 6.46831 72.9741 6.75417C73.1391 7.04003 73.1844 7.37957 73.1 7.69869C73.0157 8.01781 72.8085 8.2906 72.5237 8.45754L66.0237 12.2075C65.8339 12.3177 65.6182 12.3755 65.3987 12.375ZM71.8925 44.875C71.673 44.8755 71.4573 44.8177 71.2675 44.7075L64.7675 40.9575C64.6242 40.8761 64.4984 40.767 64.3974 40.6368C64.2964 40.5065 64.2222 40.3575 64.179 40.1984C64.1358 40.0393 64.1245 39.8733 64.1457 39.7098C64.167 39.5463 64.2204 39.3886 64.3028 39.2459C64.3852 39.1031 64.4951 38.9781 64.626 38.8779C64.757 38.7778 64.9064 38.7046 65.0658 38.6624C65.2252 38.6203 65.3913 38.6101 65.5547 38.6324C65.718 38.6547 65.8753 38.7092 66.0175 38.7925L72.5175 42.5425C72.7558 42.6801 72.942 42.8925 73.0473 43.1467C73.1526 43.4009 73.1711 43.6828 73.0998 43.9486C73.0286 44.2144 72.8717 44.4492 72.6534 44.6167C72.4351 44.7842 72.1677 44.875 71.8925 44.875ZM9.25 26.75H1.75C1.41848 26.75 1.10054 26.6183 0.866116 26.3839C0.631696 26.1495 0.5 25.8316 0.5 25.5C0.5 25.1685 0.631696 24.8506 0.866116 24.6162C1.10054 24.3817 1.41848 24.25 1.75 24.25H9.25C9.58152 24.25 9.89946 24.3817 10.1339 24.6162C10.3683 24.8506 10.5 25.1685 10.5 25.5C10.5 25.8316 10.3683 26.1495 10.1339 26.3839C9.89946 26.6183 9.58152 26.75 9.25 26.75ZM10.6013 12.375C10.3818 12.3755 10.1661 12.3177 9.97625 12.2075L3.47625 8.45754C3.19149 8.2906 2.98432 8.01781 2.89995 7.69869C2.81558 7.37957 2.86086 7.04003 3.02591 6.75417C3.19095 6.46831 3.46237 6.25934 3.78092 6.17285C4.09947 6.08637 4.4393 6.12939 4.72625 6.29254L11.2263 10.0425C11.4645 10.1801 11.6508 10.3925 11.7561 10.6467C11.8613 10.9009 11.8798 11.1828 11.8086 11.4486C11.7374 11.7144 11.5805 11.9492 11.3622 12.1167C11.1439 12.2842 10.8764 12.375 10.6013 12.375ZM4.1075 44.875C3.83234 44.875 3.56488 44.7842 3.34658 44.6167C3.12829 44.4492 2.97137 44.2144 2.90015 43.9486C2.82893 43.6828 2.8474 43.4009 2.95269 43.1467C3.05798 42.8925 3.24421 42.6801 3.4825 42.5425L9.9825 38.7925C10.1247 38.7092 10.282 38.6547 10.4453 38.6324C10.6087 38.6101 10.7748 38.6203 10.9342 38.6624C11.0936 38.7046 11.243 38.7778 11.374 38.8779C11.5049 38.9781 11.6148 39.1031 11.6972 39.2459C11.7796 39.3886 11.833 39.5463 11.8543 39.7098C11.8755 39.8733 11.8642 40.0393 11.821 40.1984C11.7778 40.3575 11.7036 40.5065 11.6026 40.6368C11.5016 40.767 11.3758 40.8761 11.2325 40.9575L4.7325 44.7075C4.54266 44.8177 4.32699 44.8755 4.1075 44.875Z" fill="black"></path></svg>