<svg xmlns="http://www.w3.org/2000/svg" width="52" height="52" viewBox="0 0 52 52" fill="none"><path d="M12.7305 28.3538V26.2031C12.7305 24.0855 14.7848 22.3688 17.319 22.3688H22.9087C24.5614 22.3688 25.9011 23.7085 25.9011 25.3612C25.9011 27.014 24.5614 28.3537 22.9087 28.3537H18.0292M32.6683 32.7789C34.169 33.4699 35.9457 32.8134 36.6367 31.3126L38.993 26.1942C39.684 24.6934 39.0275 22.9167 37.5266 22.2258C36.0259 21.5349 34.2492 22.1913 33.5583 23.6922L31.2019 28.8107C30.5111 30.3113 31.1675 32.088 32.6683 32.7789Z" stroke="black" stroke-width="2.8" stroke-miterlimit="10"></path><path d="M27.09 23.4169L29.4464 18.2984C30.1373 16.7977 29.4809 15.021 27.98 14.33C26.4793 13.6391 24.7026 14.2956 24.0117 15.7964L21.6553 20.9149M27.0302 30.7212C28.5309 31.4121 30.3076 30.7556 30.9985 29.2549L34.352 21.9707C35.0889 20.3701 34.2996 18.8259 32.8856 18.0023C31.3848 17.3114 29.6081 17.9679 28.9172 19.4687L25.5639 26.7529C24.873 28.2536 25.5294 30.0303 27.0302 30.7212Z" stroke="black" stroke-width="2.8" stroke-miterlimit="10"></path><path d="M21.0076 22.3776L24.361 15.0935C25.0979 13.4928 24.3086 11.9487 22.8946 11.1251C21.3939 10.4342 19.6172 11.0906 18.9263 12.5915L13.8085 23.7355M33.4454 48.5634V41.4891C34.9701 40.5692 35.99 38.897 35.99 36.9859V32.2211M12.7305 28.0908V34.853C12.7305 37.0345 13.6765 38.994 15.1796 40.3463V47.428M25.9016 29.8175V38.7807" stroke="black" stroke-width="2.8" stroke-miterlimit="10"></path><path d="M26 50C39.2548 50 50 39.2548 50 26C50 12.7452 39.2548 2 26 2C12.7452 2 2 12.7452 2 26C2 39.2548 12.7452 50 26 50Z" stroke="black" stroke-width="2.8" stroke-miterlimit="10"></path></svg>