<svg xmlns="http://www.w3.org/2000/svg" width="100" height="94" viewBox="0 0 100 94" fill="none"><path d="M94.1662 50.292C93.1098 50.2908 92.0731 50.5784 91.1682 51.1236L82.5954 42.5507C82.4638 42.4191 82.3076 42.3148 82.1356 42.2436C81.9637 42.1724 81.7794 42.1357 81.5934 42.1357H68.5997C67.646 40.9212 67.7051 39.4837 68.1189 38.4847C68.574 37.386 69.7049 36.2119 71.5142 36.2119C73.1294 36.2119 74.4438 34.8977 74.4438 33.2823V32.3967H81.8527C82.4875 34.9307 84.7834 36.8133 87.5114 36.8133C90.7282 36.8133 93.345 34.1963 93.345 30.9797C93.345 27.7629 90.728 25.1461 87.5114 25.1461C84.7832 25.1461 82.4875 27.0287 81.8527 29.5627H74.4438V28.6771C74.4438 27.0617 73.1296 25.7475 71.5142 25.7475C69.7049 25.7475 68.574 24.5734 68.1189 23.4746C67.7051 22.4757 67.646 21.0382 68.5997 19.8236H81.5934C81.7794 19.8237 81.9637 19.787 82.1356 19.7158C82.3076 19.6446 82.4638 19.5402 82.5954 19.4087L91.1682 10.8358C92.0732 11.381 93.1099 11.6686 94.1664 11.6674C97.3832 11.6674 100 9.05039 100 5.83379C100 2.6172 97.3828 0 94.1662 0C90.9496 0 88.3326 2.617 88.3326 5.83359C88.3315 6.89008 88.619 7.9268 89.1642 8.83176L81.0065 16.9896H69.7397C69.6541 16.3586 69.3636 15.7732 68.9128 15.3234L65.6563 12.0672C65.1033 11.5137 64.3675 11.2089 63.5849 11.2089C62.8023 11.2089 62.0665 11.5135 61.5132 12.067C60.2341 13.3463 58.6041 13.3158 57.5051 12.8607C56.4064 12.4056 55.2323 11.2747 55.2323 9.46516C55.2323 7.84978 53.9181 6.53561 52.3027 6.53561H47.6975C46.0823 6.53561 44.7679 7.84978 44.7679 9.46516C44.7679 11.2745 43.5938 12.4056 42.4949 12.8607C41.3967 13.316 39.7663 13.3463 38.487 12.067C37.9337 11.5137 37.1979 11.2089 36.4153 11.2089C35.6327 11.2089 34.8969 11.5137 34.3439 12.067L31.0876 15.3232C30.6367 15.773 30.3461 16.3584 30.2605 16.9894H18.9937L10.836 8.83156C11.3811 7.92658 11.6687 6.88987 11.6676 5.83339C11.6674 2.617 9.05039 0 5.83359 0C2.6168 0 0 2.617 0 5.83359C0 9.05018 2.617 11.6672 5.83359 11.6672C6.89008 11.6683 7.9268 11.3808 8.83176 10.8356L17.4046 19.4085C17.5362 19.54 17.6924 19.6444 17.8644 19.7156C18.0363 19.7868 18.2206 19.8235 18.4066 19.8234H31.4005C32.354 21.038 32.2949 22.4753 31.8813 23.4744C31.4263 24.5732 30.2951 25.7473 28.4858 25.7473C26.8706 25.7473 25.5562 27.0615 25.5562 28.6769V29.5625H18.1473C17.5125 27.0285 15.2168 25.1459 12.4888 25.1459C9.27205 25.1459 6.65525 27.7629 6.65525 30.9795C6.65525 34.1961 9.27225 36.8131 12.4888 36.8131C15.2168 36.8131 17.5125 34.9305 18.1473 32.3965H25.5562V33.2821C25.5562 34.8975 26.8704 36.2117 28.4858 36.2117C30.2951 36.2117 31.4263 37.3858 31.8813 38.4845C32.2951 39.4837 32.3542 40.9212 31.4005 42.1355H18.4066C18.2206 42.1355 18.0363 42.1722 17.8644 42.2434C17.6924 42.3146 17.5362 42.4189 17.4046 42.5505L8.83176 51.1234C7.92688 50.5782 6.89022 50.2906 5.83379 50.2918C2.617 50.292 0 52.909 0 56.1256C0 59.3424 2.617 61.9592 5.83359 61.9592C9.05018 61.9592 11.6672 59.3422 11.6672 56.1256C11.6684 55.0692 11.3808 54.0326 10.8356 53.1278L18.9933 44.9697H30.2601C30.3456 45.6008 30.6362 46.1862 31.087 46.6359L34.3435 49.8922C34.8965 50.4454 35.6323 50.7503 36.4149 50.7503C37.1975 50.7503 37.9333 50.4456 38.4866 49.8924C39.4232 48.9558 40.4594 48.7833 41.1629 48.8064C42.0303 48.8345 42.8618 49.1593 43.5185 49.7266L43.5204 68.4126C40.8011 67.7928 37.8463 67.9114 35.8343 70.9851C33.7155 74.2227 34.5177 78.5452 37.6604 80.8249C40.4386 82.8407 42.5272 84.5903 44.3702 86.1338C49.8839 90.7516 52.9212 93.2952 63.3448 93.8919C63.7517 93.9152 64.1561 93.9269 64.5596 93.9267C69.7679 93.9265 74.6675 91.9948 78.4654 88.4178C82.65 84.477 85.0589 78.9185 85.0747 73.1523L84.96 58.6489C84.9614 56.9863 84.3114 55.4191 83.1296 54.2361C81.948 53.0533 80.3816 52.4017 78.7193 52.4007H78.7148C77.0531 52.4007 75.4877 53.0511 74.3063 54.2325C74.1609 54.3779 74.0225 54.5302 73.8918 54.689C73.763 54.533 73.627 54.3831 73.4843 54.2398C72.3025 53.055 70.7351 52.4019 69.0705 52.4007H69.0663C67.4053 52.4007 65.8397 53.0509 64.6584 54.2315C64.5122 54.3775 64.3732 54.5305 64.2418 54.69C64.1117 54.5322 63.9742 54.3807 63.8296 54.2361C62.6483 53.0537 61.0823 52.4019 59.4199 52.4009H59.4157C58.1892 52.4009 57.0045 52.7762 55.9843 53.4742L55.9877 50.2438C56.5964 49.4671 57.5234 48.9473 58.5349 48.8321C59.6444 48.706 60.7021 49.0823 61.5124 49.8928C62.0657 50.446 62.8015 50.7507 63.5841 50.7507C64.3667 50.7507 65.1025 50.4458 65.6555 49.8928L68.9118 46.6365C69.3628 46.1868 69.6534 45.6013 69.7389 44.9701H81.0057L89.1634 53.1282C88.6182 54.033 88.3306 55.0696 88.3318 56.126C88.3318 59.3428 90.9488 61.9596 94.1654 61.9596C97.382 61.9596 99.9998 59.3422 99.9998 56.1256C99.9998 52.909 97.3828 50.292 94.1662 50.292ZM87.5112 27.9801C89.1652 27.9801 90.5107 29.3256 90.5107 30.9797C90.5107 32.6335 89.1652 33.9793 87.5112 33.9793C85.8571 33.9793 84.5116 32.6337 84.5116 30.9797C84.5114 29.3256 85.8571 27.9801 87.5112 27.9801ZM94.1662 2.834C95.8203 2.834 97.1658 4.17955 97.1658 5.83359C97.1658 7.48764 95.8203 8.83318 94.1662 8.83318C92.5122 8.83318 91.1666 7.48764 91.1666 5.83359C91.1666 4.17955 92.5122 2.834 94.1662 2.834ZM5.83359 8.83338C4.17955 8.83338 2.834 7.48764 2.834 5.83359C2.834 4.17955 4.17955 2.834 5.83359 2.834C7.48764 2.834 8.83318 4.17955 8.83318 5.83359C8.83318 7.48764 7.48764 8.83338 5.83359 8.83338ZM12.4886 33.9793C10.8346 33.9793 9.48905 32.6337 9.48905 30.9797C9.48905 29.3256 10.8346 27.9801 12.4886 27.9801C14.1425 27.9801 15.488 29.3256 15.488 30.9797C15.4882 32.6335 14.1425 33.9793 12.4886 33.9793ZM5.83359 59.1252C4.17955 59.1252 2.834 57.7796 2.834 56.1256C2.834 54.4717 4.17955 53.1262 5.83359 53.1262C7.48764 53.1262 8.83318 54.4717 8.83318 56.1256C8.83338 57.7796 7.48764 59.1252 5.83359 59.1252ZM54.1758 28.4487C52.9944 27.2661 51.4282 26.6141 49.7657 26.6129H49.7614C48.1009 26.6129 46.5353 27.2629 45.3536 28.4433C44.1704 29.6246 43.5183 31.191 43.5173 32.8546L43.5179 38.3823C41.4076 36.5418 40.1641 33.8714 40.1641 30.9799C40.1641 25.5564 44.5764 21.1441 50.0001 21.1441C55.4236 21.1441 59.8359 25.5564 59.8359 30.9799C59.8359 34.069 58.3823 36.9343 56.0005 38.772L56.0068 32.8619C56.008 31.1991 55.3578 29.6317 54.1758 28.4487ZM57.0501 56.2588C57.7082 55.5981 58.5483 55.2343 59.4161 55.2343H59.4185C60.3242 55.2349 61.179 55.5918 61.8256 56.2388C62.4703 56.8839 62.825 57.7349 62.8252 58.6357V58.6452C62.8253 59.0208 62.9745 59.381 63.24 59.6466C63.5055 59.9122 63.8656 60.0616 64.2412 60.0618H64.2422C64.6176 60.0618 64.9776 59.9128 65.2432 59.6476C65.5089 59.3824 65.6585 59.0226 65.6592 58.6472V58.6361C65.661 57.7327 66.0173 56.8807 66.6622 56.2361C67.3086 55.5902 68.1624 55.2347 69.0673 55.2347H69.0695C69.9764 55.2353 70.8318 55.5928 71.4784 56.2412C72.1209 56.8853 72.4748 57.7347 72.4752 58.6333V58.646C72.4754 59.0215 72.6247 59.3815 72.8902 59.647C73.1557 59.9125 73.5157 60.0618 73.8912 60.062H73.8922C74.2675 60.062 74.6275 59.9131 74.8931 59.648C75.1588 59.3829 75.3084 59.0232 75.3092 58.6479V58.6331C75.3116 57.7313 75.6671 56.8806 76.3108 56.2365C76.9569 55.5906 77.8108 55.2349 78.7158 55.2349H78.7185C79.6243 55.2353 80.479 55.5922 81.1257 56.2394C81.7721 56.8865 82.1278 57.7414 82.127 58.6592L82.2417 73.16C82.2282 78.1361 80.144 82.9458 76.5235 86.3553C73.0035 89.6701 68.3808 91.3403 63.5078 91.0632C54.0216 90.5199 51.4044 88.3282 46.1904 83.9616C44.3123 82.3885 42.1831 80.6055 39.3254 78.5318C37.4082 77.1411 36.9167 74.5079 38.2062 72.5377C38.7641 71.6855 39.4392 70.9422 41.0657 70.9422C41.9115 70.9422 43.0141 71.143 44.4912 71.6339C44.7042 71.7048 44.931 71.7241 45.1529 71.6902C45.3748 71.6562 45.5855 71.57 45.7676 71.4386C45.9496 71.3073 46.0978 71.1345 46.2 70.9346C46.3022 70.7347 46.3553 70.5134 46.3552 70.2889L46.3513 32.856C46.3519 31.9505 46.7088 31.0957 47.3562 30.4493C48.0029 29.8034 48.8572 29.4477 49.7616 29.4477H49.7639C50.6697 29.4483 51.5244 29.8052 52.1714 30.4524C52.8179 31.0995 53.1736 31.9548 53.1728 32.8599L53.1456 58.7466L53.1454 58.8136C53.1473 59.1883 53.2974 59.5469 53.5629 59.8112C53.8284 60.0754 54.1878 60.2238 54.5624 60.2238H54.5653C54.9403 60.223 55.2998 60.0736 55.5648 59.8083C55.8299 59.543 55.979 59.1834 55.9794 58.8084V58.757C55.9867 57.8442 56.3756 56.9363 57.0501 56.2588ZM66.9084 44.6319L63.6519 47.8884C63.645 47.8952 63.624 47.9163 63.5845 47.9163C63.5719 47.9166 63.5593 47.9143 63.5477 47.9094C63.536 47.9046 63.5255 47.8973 63.5169 47.8882C62.1039 46.4752 60.1695 45.7926 58.2147 46.0157C57.4405 46.1053 56.6882 46.3303 55.992 46.6805L55.9969 42.1424C60.0792 39.9467 62.6697 35.6617 62.6697 30.9797C62.6697 23.9935 56.9861 18.3099 49.9999 18.3099C43.0137 18.3099 37.3299 23.9937 37.3299 30.9797C37.3299 35.4922 39.6793 39.5874 43.5181 41.8681L43.5185 46.4507C42.7962 46.1595 42.0282 45.998 41.2497 45.9736C39.4619 45.9175 37.772 46.5991 36.4827 47.8882C36.4758 47.895 36.4548 47.9163 36.4151 47.9163C36.4025 47.9166 36.39 47.9142 36.3784 47.9094C36.3668 47.9045 36.3563 47.8973 36.3477 47.8882L33.091 44.6317C33.0841 44.6248 33.0631 44.604 33.0631 44.5643C33.0631 44.5246 33.0841 44.5038 33.0912 44.4967C34.9874 42.6003 35.5269 39.8811 34.4993 37.4001C33.4716 34.9192 31.1671 33.3779 28.4854 33.3779C28.46 33.3778 28.4358 33.3677 28.4179 33.3498C28.4 33.3319 28.3899 33.3076 28.3898 33.2823V28.6771C28.3898 28.6244 28.4327 28.5815 28.4854 28.5815C31.1671 28.5815 33.4716 27.0402 34.4993 24.5591C35.5269 22.0779 34.9874 19.3589 33.091 17.4625C33.0841 17.4556 33.0631 17.4346 33.0631 17.3951C33.0631 17.3556 33.0841 17.3346 33.0912 17.3275L36.3477 14.0708C36.3564 14.0618 36.3669 14.0547 36.3785 14.0499C36.3901 14.0451 36.4026 14.0428 36.4151 14.0431C36.4548 14.0431 36.4758 14.0641 36.4827 14.071C38.3791 15.9674 41.0985 16.5068 43.5793 15.4793C46.0604 14.4516 47.6017 12.1473 47.6017 9.46557C47.6017 9.41294 47.6446 9.37002 47.6973 9.37002H52.3025C52.3552 9.37002 52.3981 9.41294 52.3981 9.46557C52.3981 12.1473 53.9394 14.4516 56.4203 15.4793C58.9017 16.5073 61.6207 15.9674 63.5171 14.0712C63.524 14.0643 63.545 14.0433 63.5847 14.0433C63.6242 14.0433 63.6452 14.0643 63.6521 14.0712L66.9088 17.3277C66.9157 17.3346 66.9367 17.3556 66.9367 17.3951C66.9367 17.4346 66.9157 17.4556 66.9088 17.4627C65.0124 19.3589 64.4729 22.0781 65.5005 24.5593C66.5282 27.0404 68.8325 28.5817 71.5142 28.5817C71.5669 28.5817 71.6098 28.6246 71.6098 28.6773V33.2825C71.6098 33.3352 71.5669 33.3781 71.5142 33.3781C68.8327 33.3781 66.5282 34.9194 65.5005 37.4003C64.4729 39.8813 65.0124 42.6007 66.9088 44.4971C66.9157 44.504 66.9367 44.525 66.9367 44.5645C66.9367 44.604 66.9155 44.6248 66.9084 44.6319ZM94.1662 59.1252C92.5122 59.1252 91.1666 57.7796 91.1666 56.1256C91.1666 54.4717 92.5122 53.1262 94.1662 53.1262C95.8203 53.1262 97.1658 54.4717 97.1658 56.1256C97.1658 57.7796 95.8203 59.1252 94.1662 59.1252Z" fill="white"></path></svg>