<svg xmlns="http://www.w3.org/2000/svg" width="101" height="100" viewBox="0 0 101 100" fill="none"><path d="M65.0425 27.0827H36.6972C31.6019 27.0827 27.4564 31.2282 27.4564 36.3235V63.677C27.4564 68.7723 31.6019 72.9178 36.6972 72.9178H65.0425C70.1378 72.9178 74.2833 68.7723 74.2833 63.677V36.3235C74.2833 31.2282 70.138 27.0827 65.0425 27.0827ZM70.7812 63.677C70.7812 66.8412 68.207 69.4157 65.0425 69.4157H36.6972C33.5327 69.4157 30.9585 66.8412 30.9585 63.677V36.3235C30.9585 33.1593 33.5327 30.5848 36.6972 30.5848H65.0425C68.207 30.5848 70.7812 33.1593 70.7812 36.3235V63.677ZM38.4249 14.1479V20.7864C38.4249 21.2508 38.6094 21.6962 38.9377 22.0246C39.2661 22.353 39.7115 22.5375 40.1759 22.5375C40.6403 22.5375 41.0857 22.353 41.4141 22.0246C41.7425 21.6962 41.9269 21.2508 41.9269 20.7864V14.1479C45.0438 13.3641 47.3582 10.5389 47.3582 7.18252C47.3582 3.22215 44.1363 0.000244141 40.1759 0.000244141C36.2155 0.000244141 32.9936 3.22215 32.9936 7.18252C32.9936 10.5389 35.3083 13.3641 38.4249 14.1479ZM40.1759 3.50232C42.2052 3.50232 43.8561 5.15319 43.8561 7.18252C43.8561 9.21162 42.2052 10.8627 40.1759 10.8627C38.1466 10.8627 36.4957 9.21162 36.4957 7.18252C36.4957 5.15319 38.1466 3.50232 40.1759 3.50232ZM59.0012 14.1479V20.7864C59.0012 21.2508 59.1857 21.6962 59.514 22.0246C59.8424 22.353 60.2878 22.5375 60.7522 22.5375C61.2166 22.5375 61.662 22.353 61.9904 22.0246C62.3188 21.6962 62.5032 21.2508 62.5032 20.7864V14.1479C65.6201 13.3641 67.9345 10.5389 67.9345 7.18252C67.9345 3.22215 64.7126 0.000244141 60.7522 0.000244141C56.7918 0.000244141 53.5699 3.22215 53.5699 7.18252C53.5699 10.5389 55.8846 13.3641 59.0012 14.1479ZM60.7522 3.50232C62.7815 3.50232 64.4324 5.15319 64.4324 7.18252C64.4324 9.21162 62.7815 10.8627 60.7522 10.8627C58.7229 10.8627 57.072 9.21162 57.072 7.18252C57.072 5.15319 58.7226 3.50232 60.7522 3.50232ZM62.909 85.8526V79.2141C62.909 78.7496 62.7245 78.3043 62.3962 77.9759C62.0678 77.6475 61.6224 77.463 61.158 77.463C60.6936 77.463 60.2482 77.6475 59.9198 77.9759C59.5914 78.3043 59.4069 78.7496 59.4069 79.2141V85.8526C56.2901 86.6363 53.9757 89.4616 53.9757 92.818C53.9757 96.7783 57.1976 100 61.158 100C65.1184 100 68.3403 96.7783 68.3403 92.818C68.3403 89.4616 66.0256 86.6363 62.909 85.8526ZM61.158 96.4982C59.1287 96.4982 57.4778 94.8473 57.4778 92.818C57.4778 90.7889 59.1287 89.1378 61.158 89.1378C63.1873 89.1378 64.8382 90.7889 64.8382 92.818C64.8382 94.8473 63.1873 96.4982 61.158 96.4982ZM42.3327 85.8526V79.2141C42.3327 78.7496 42.1482 78.3043 41.8199 77.9759C41.4915 77.6475 41.0461 77.463 40.5817 77.463C40.1173 77.463 39.6719 77.6475 39.3435 77.9759C39.0151 78.3043 38.8307 78.7496 38.8307 79.2141V85.8526C35.7138 86.6363 33.3994 89.4616 33.3994 92.818C33.3994 96.7783 36.6213 100 40.5817 100C44.5421 100 47.764 96.7783 47.764 92.818C47.764 89.4616 45.4493 86.6363 42.3327 85.8526ZM40.5817 96.4982C38.5523 96.4982 36.9015 94.8473 36.9015 92.818C36.9015 90.7889 38.5523 89.1378 40.5817 89.1378C42.611 89.1378 44.2619 90.7889 44.2619 92.818C44.2619 94.8473 42.6113 96.4982 40.5817 96.4982ZM79.8808 41.2602H86.5193C87.303 44.3771 90.1283 46.6915 93.4849 46.6915C97.445 46.6915 100.667 43.4696 100.667 39.5092C100.667 35.5488 97.445 32.3269 93.4849 32.3269C90.1285 32.3269 87.303 34.6416 86.5193 37.7582H79.8808C79.4164 37.7582 78.971 37.9427 78.6426 38.271C78.3142 38.5994 78.1297 39.0448 78.1297 39.5092C78.1297 39.9736 78.3142 40.419 78.6426 40.7474C78.971 41.0758 79.4164 41.2602 79.8808 41.2602ZM93.4849 35.829C95.5138 35.829 97.1649 37.4801 97.1649 39.5092C97.1649 41.5385 95.514 43.1894 93.4849 43.1894C91.4553 43.1894 89.8045 41.5385 89.8045 39.5092C89.8045 37.4799 91.4553 35.829 93.4847 35.829H93.4849ZM93.4849 52.9032C90.1283 52.9032 87.303 55.2176 86.5193 58.3345H79.8808C79.4164 58.3345 78.971 58.519 78.6426 58.8473C78.3142 59.1757 78.1297 59.6211 78.1297 60.0855C78.1297 60.5499 78.3142 60.9953 78.6426 61.3237C78.971 61.6521 79.4164 61.8365 79.8808 61.8365H86.5193C87.303 64.9531 90.1283 67.2678 93.4849 67.2678C97.445 67.2678 100.667 64.0459 100.667 60.0855C100.667 56.1251 97.445 52.9032 93.4849 52.9032ZM93.4849 63.7657C91.4553 63.7657 89.8045 62.1148 89.8045 60.0855C89.8045 58.0562 91.4553 56.4053 93.4847 56.4053C95.514 56.4053 97.1649 58.0559 97.1649 60.0855C97.1649 62.1151 95.514 63.7657 93.4847 63.7657H93.4849ZM21.4531 58.7402H14.8151C14.0311 55.6234 11.2058 53.309 7.84947 53.309C3.88909 53.309 0.667184 56.5309 0.667184 60.4913C0.667184 64.4514 3.88909 67.6736 7.84923 67.6736C11.2058 67.6736 14.0311 65.3589 14.8151 62.2423H21.4534C21.9178 62.2423 22.3632 62.0578 22.6915 61.7295C23.0199 61.4011 23.2044 60.9557 23.2044 60.4913C23.2044 60.0269 23.0199 59.5815 22.6915 59.2531C22.3632 58.9247 21.9178 58.7402 21.4534 58.7402H21.4531ZM7.84923 64.1715C5.8199 64.1715 4.16902 62.5204 4.16902 60.4913C4.16902 58.4619 5.8199 56.8111 7.849 56.8111C9.87856 56.8111 11.5294 58.4619 11.5294 60.4913C11.5294 62.5204 9.8788 64.1715 7.84923 64.1715ZM21.4531 38.1639H14.8151C14.0306 35.0473 11.2056 32.7327 7.849 32.7327C3.88862 32.7327 0.666718 35.9546 0.666718 39.915C0.666718 43.8754 3.88862 47.0973 7.84876 47.0973C11.2054 47.0973 14.0306 44.7829 14.8146 41.666H21.4529C21.9173 41.666 22.3627 41.4815 22.6911 41.1531C23.0195 40.8248 23.2039 40.3794 23.2039 39.915C23.2039 39.4506 23.0195 39.0052 22.6911 38.6768C22.3627 38.3484 21.9175 38.1639 21.4531 38.1639ZM7.84923 43.5952C5.8199 43.5952 4.16902 41.9445 4.16902 39.915C4.16902 37.8854 5.8199 36.2348 7.849 36.2348C9.87856 36.2348 11.5294 37.8856 11.5294 39.915C11.5294 41.9443 9.8788 43.5952 7.84923 43.5952Z" fill="#7D3CF3"></path><path d="M48.9306 40.6007C48.6969 40.0729 48.315 39.6243 47.8312 39.3094C47.3474 38.9945 46.7826 38.8269 46.2053 38.8269C45.6281 38.8269 45.0633 38.9945 44.5795 39.3094C44.0957 39.6243 43.7137 40.0729 43.48 40.6007L35.9247 57.6628C35.3905 58.8689 36.2737 60.2259 37.5928 60.2259C37.9482 60.2259 38.2959 60.1221 38.5931 59.9272C38.8903 59.7324 39.1241 59.4549 39.2659 59.129L40.7024 55.8261C40.7413 55.7367 40.8055 55.6606 40.887 55.6072C40.9686 55.5538 41.0639 55.5254 41.1614 55.5254H51.2345C51.4337 55.5254 51.6139 55.6435 51.6933 55.8261L53.128 59.1251C53.2703 59.4522 53.505 59.7306 53.8033 59.9262C54.1017 60.1217 54.4506 60.2259 54.8074 60.2259C56.1314 60.2259 57.0179 58.864 56.4818 57.653L48.9306 40.6007ZM49.4567 52.3766H42.9839C42.9009 52.3766 42.8192 52.3559 42.7462 52.3165C42.6732 52.2771 42.6111 52.2201 42.5656 52.1507C42.52 52.0814 42.4925 52.0017 42.4854 51.9191C42.4783 51.8364 42.4919 51.7532 42.5249 51.6771L45.7615 44.2261C45.9357 43.8247 46.5049 43.8247 46.6793 44.2261L49.9157 51.6771C49.9487 51.7532 49.9623 51.8364 49.9552 51.9191C49.9481 52.0017 49.9205 52.0814 49.875 52.1507C49.8295 52.2201 49.7674 52.2771 49.6944 52.3165C49.6213 52.3559 49.5396 52.3766 49.4567 52.3766ZM62.0676 38.8271C61.565 38.8271 61.083 39.0267 60.7276 39.3821C60.3722 39.7375 60.1725 40.2195 60.1725 40.7221V58.3306C60.1725 58.8332 60.3722 59.3152 60.7276 59.6706C61.083 60.026 61.565 60.2256 62.0676 60.2256C62.5702 60.2256 63.0522 60.026 63.4076 59.6706C63.763 59.3152 63.9627 58.8332 63.9627 58.3306V40.7221C63.9627 40.2195 63.763 39.7375 63.4076 39.3821C63.0522 39.0267 62.5702 38.8271 62.0676 38.8271Z" fill="#7D3CF3"></path></svg>