<svg xmlns="http://www.w3.org/2000/svg" width="100" height="100" viewBox="0 0 100 100" fill="none"><path d="M81.045 31.1664L70.445 20.5528C70.2266 20.3323 69.9511 20.1772 69.6495 20.1049C69.3479 20.0326 69.0321 20.0461 68.7377 20.1437C68.4433 20.2413 68.1819 20.4193 67.983 20.6575C67.784 20.8958 67.6555 21.1849 67.6117 21.4923C67.4364 22.7194 66.9233 23.8734 66.13 24.825C65.3367 25.7766 64.2943 26.4882 63.1199 26.8801C61.9454 27.272 60.6851 27.3287 59.4802 27.0439C58.2753 26.7591 57.1735 26.1439 56.2981 25.2674C55.4227 24.3909 54.8084 23.2876 54.5239 22.0812C54.2394 20.8748 54.296 19.6129 54.6874 18.4369C55.0788 17.2608 55.7895 16.2172 56.7399 15.4228C57.6903 14.6284 58.8428 14.1147 60.0683 13.9392C60.3754 13.8954 60.6641 13.7667 60.902 13.5675C61.14 13.3683 61.3177 13.1066 61.4152 12.8118C61.5127 12.517 61.5261 12.2008 61.4539 11.8988C61.3818 11.5968 61.2269 11.3209 61.0067 11.1023L50.4067 0.488606C50.0941 0.175752 49.6703 0 49.2283 0C48.7864 0 48.3625 0.175752 48.05 0.488606L38.845 9.70213C38.3918 8.00359 37.4999 6.45448 36.259 5.21059C35.0181 3.96669 33.472 3.07188 31.7762 2.61611C30.0804 2.16035 28.2946 2.15972 26.5984 2.61428C24.9023 3.06884 23.3555 3.96256 22.1138 5.20557C20.872 6.44858 19.979 7.99706 19.5246 9.69528C19.0702 11.3935 19.0703 13.1816 19.525 14.8797C19.9797 16.5779 20.873 18.1262 22.1149 19.369C23.3569 20.6118 24.9038 21.5053 26.6 21.9596L17.405 31.1664C17.0925 31.4794 16.917 31.9038 16.917 32.3463C16.917 32.7888 17.0925 33.2132 17.405 33.5261L26.6033 42.748C24.5841 43.2911 22.7857 44.4543 21.461 46.074C20.1363 47.6937 19.3519 49.6884 19.2182 51.7776C19.0844 53.8668 19.6081 55.9455 20.7154 57.7212C21.8228 59.497 23.4582 60.8806 25.3917 61.6773L21.5 72.9168C20.983 74.083 20.74 75.3524 20.7897 76.6274C20.8394 77.9024 21.1805 79.149 21.7867 80.2713L27.6367 94.1224C27.6583 94.1757 27.6834 94.2276 27.7117 94.2776C28.1214 95.0295 28.3352 95.8726 28.3333 96.7291V98.3312C28.3333 98.7738 28.5089 99.1983 28.8215 99.5112C29.134 99.8242 29.558 100 30 100C30.442 100 30.866 99.8242 31.1785 99.5112C31.4911 99.1983 31.6667 98.7738 31.6667 98.3312V96.7291C31.6649 95.3409 31.3214 93.9744 30.6667 92.7507L24.815 78.8995C24.7918 78.8423 24.7651 78.7866 24.735 78.7326C24.353 78.0345 24.1407 77.2562 24.1152 76.4606C24.0897 75.665 24.2518 74.8746 24.5883 74.1534L28.665 62.405C28.84 62.405 29.0117 62.43 29.1883 62.43C31.388 62.4319 33.5268 61.7062 35.2722 60.3657C37.0175 59.0252 38.2718 57.1449 38.84 55.0171L41.6667 57.8357V74.9678C41.6667 75.4104 41.8423 75.8349 42.1548 76.1478C42.4674 76.4608 42.8913 76.6366 43.3333 76.6366C43.7754 76.6366 44.1993 76.4608 44.5118 76.1478C44.8244 75.8349 45 75.4104 45 74.9678V51.6044C45 50.2766 45.5268 49.0032 46.4645 48.0643C47.4021 47.1254 48.6739 46.5979 50 46.5979C51.3261 46.5979 52.5978 47.1254 53.5355 48.0643C54.4732 49.0032 55 50.2766 55 51.6044V71.8154C55.0029 74.1467 55.5449 76.4458 56.5833 78.5324L57.1933 79.7573C57.9998 81.3801 58.4195 83.1681 58.4195 84.9807C58.4195 86.7933 57.9998 88.5812 57.1933 90.2041L55.5267 93.5417C55.1807 94.2374 55.0004 95.004 55 95.7812V98.3312C55 98.7738 55.1756 99.1983 55.4882 99.5112C55.8007 99.8242 56.2246 100 56.6667 100C57.1087 100 57.5326 99.8242 57.8452 99.5112C58.1577 99.1983 58.3333 98.7738 58.3333 98.3312V95.7812C58.3316 95.5231 58.3886 95.2681 58.5 95.0353L60.1667 91.6977C61.2033 89.611 61.7429 87.3121 61.7429 84.9815C61.7429 82.6509 61.2033 80.352 60.1667 78.2654L59.5567 77.0405C58.9591 75.8388 58.5718 74.5433 58.4117 73.2105C59.4941 74.2983 60.7807 75.161 62.1975 75.749C63.6142 76.337 65.1331 76.6386 66.6667 76.6366C67.9927 76.6366 69.2645 76.1091 70.2022 75.1702C71.1399 74.2314 71.6667 72.958 71.6667 71.6302V62.1179C73.8178 61.585 75.7309 60.351 77.1049 58.6102C78.4789 56.8694 79.2359 54.7205 79.2567 52.5018C79.2775 50.283 78.561 48.1203 77.2198 46.354C75.8787 44.5877 73.9891 43.3179 71.8483 42.7447L81.045 33.5228C81.3564 33.21 81.5313 32.7863 81.5313 32.3446C81.5313 31.9029 81.3564 31.4792 81.045 31.1664ZM66.6667 73.299C64.4573 73.2963 62.3393 72.4164 60.777 70.8521C59.2148 69.2879 58.336 67.1671 58.3333 64.9549V56.2771L59.6067 55.0021C60.1319 56.9784 61.2505 58.7455 62.8112 60.0647C64.3719 61.3838 66.2995 62.1914 68.3333 62.3783V71.6302C68.3333 72.0728 68.1577 72.4972 67.8452 72.8102C67.5326 73.1232 67.1087 73.299 66.6667 73.299ZM66.905 42.9816C66.6549 43.2292 66.4894 43.5497 66.4322 43.8971C66.375 44.2446 66.4291 44.6013 66.5867 44.9161C66.7443 45.231 66.9973 45.4878 67.3095 45.6499C67.6218 45.812 67.9772 45.8711 68.325 45.8186C69.7097 45.6224 71.1209 45.8671 72.359 46.5182C73.5971 47.1693 74.5994 48.1938 75.224 49.4466C75.8486 50.6995 76.0639 52.1173 75.8395 53.4994C75.615 54.8815 74.9621 56.158 73.9733 57.1481C72.9844 58.1383 71.7096 58.792 70.3292 59.0167C68.9489 59.2415 67.5329 59.0259 66.2817 58.4005C65.0304 57.7751 64.0073 56.7715 63.357 55.5318C62.7068 54.2921 62.4624 52.879 62.6583 51.4926C62.7107 51.1443 62.6518 50.7884 62.4899 50.4758C62.328 50.1632 62.0715 49.9098 61.757 49.752C61.4426 49.5943 61.0864 49.5401 60.7393 49.5974C60.3923 49.6546 60.0723 49.8203 59.825 50.0708L58.3333 51.5677C58.3285 49.3547 57.4458 47.2343 55.8796 45.6729C54.3134 44.1115 52.1918 43.2371 49.9817 43.242C47.7715 43.2468 45.6538 44.1306 44.0945 45.6989C42.5351 47.2671 41.6618 49.3914 41.6667 51.6044V53.1163L38.6117 50.0574C38.3644 49.807 38.0444 49.6413 37.6973 49.584C37.3503 49.5268 36.9941 49.5809 36.6796 49.7387C36.3652 49.8965 36.1087 50.1498 35.9468 50.4625C35.7849 50.7751 35.7259 51.131 35.7783 51.4792C35.9743 52.8657 35.7299 54.2788 35.0796 55.5185C34.4294 56.7582 33.4062 57.7617 32.155 58.3871C30.9037 59.0125 29.4878 59.2281 28.1074 59.0034C26.7271 58.7786 25.4523 58.1249 24.4634 57.1348C23.4745 56.1446 22.8217 54.8682 22.5972 53.486C22.3728 52.1039 22.5881 50.6861 23.2127 49.4333C23.8373 48.1804 24.8395 47.156 26.0776 46.5049C27.3157 45.8538 28.727 45.609 30.1117 45.8053C30.4596 45.8582 30.8153 45.7994 31.1279 45.6375C31.4404 45.4756 31.6937 45.2187 31.8516 44.9038C32.0094 44.5888 32.0636 44.232 32.0064 43.8843C31.9493 43.5366 31.7837 43.2159 31.5333 42.9683L20.9383 32.3463L31.545 21.7326C31.7951 21.485 31.9606 21.1646 32.0178 20.8171C32.0749 20.4696 32.0209 20.1129 31.8633 19.7981C31.7057 19.4833 31.4527 19.2264 31.1405 19.0643C30.8282 18.9022 30.4728 18.8432 30.125 18.8956C28.7421 19.0891 27.3335 18.843 26.0978 18.192C24.8622 17.5409 23.8618 16.5179 23.238 15.2671C22.6141 14.0163 22.3982 12.6009 22.6208 11.2207C22.8433 9.84048 23.4931 8.56506 24.4783 7.57439C25.749 6.36233 27.4367 5.68625 29.1917 5.68625C30.9466 5.68625 32.6343 6.36233 33.905 7.57439C34.6343 8.3066 35.1838 9.19847 35.5101 10.1797C35.8363 11.1608 35.9304 12.2045 35.785 13.2283C35.7326 13.5766 35.7916 13.9325 35.9535 14.2451C36.1154 14.5577 36.3719 14.8111 36.6863 14.9689C37.0007 15.1267 37.357 15.1808 37.704 15.1236C38.051 15.0663 38.3711 14.9006 38.6183 14.6502L49.2333 4.03317L56.7017 11.5128C55.258 12.2031 54.0009 13.2302 53.0358 14.5078C52.0707 15.7853 51.4259 17.2761 51.1553 18.8549C50.8848 20.4337 50.9965 22.0545 51.4811 23.5811C51.9657 25.1077 52.809 26.4956 53.9402 27.6283C55.0715 28.761 56.4576 29.6054 57.9823 30.0906C59.5069 30.5758 61.1256 30.6877 62.7023 30.4168C64.2791 30.1459 65.7679 29.5002 67.0439 28.5339C68.3198 27.5675 69.3455 26.3088 70.035 24.8633L77.505 32.3413L66.905 42.9816ZM98.3333 34.9162H88.3333C87.8913 34.9162 87.4674 34.7404 87.1548 34.4275C86.8423 34.1145 86.6667 33.69 86.6667 33.2474C86.6667 32.8048 86.8423 32.3804 87.1548 32.0674C87.4674 31.7544 87.8913 31.5786 88.3333 31.5786H98.3333C98.7754 31.5786 99.1993 31.7544 99.5118 32.0674C99.8244 32.3804 100 32.8048 100 33.2474C100 33.69 99.8244 34.1145 99.5118 34.4275C99.1993 34.7404 98.7754 34.9162 98.3333 34.9162ZM86.5317 15.7249C86.1648 15.7249 85.8082 15.6036 85.5171 15.38C85.226 15.1564 85.0168 14.8428 84.9219 14.488C84.8269 14.1332 84.8515 13.7569 84.9919 13.4175C85.1323 13.0781 85.3806 12.7946 85.6983 12.6109L94.365 7.60443C94.7476 7.38662 95.2007 7.32918 95.6254 7.44464C96.0502 7.56011 96.4121 7.8391 96.6321 8.22073C96.8522 8.60237 96.9126 9.05567 96.8001 9.48171C96.6876 9.90775 96.4113 10.2719 96.0317 10.4948L87.365 15.5013C87.1119 15.6483 86.8243 15.7255 86.5317 15.7249ZM95.19 59.1141C94.8973 59.1147 94.6098 59.0375 94.3567 58.8904L85.69 53.884C85.4989 53.7752 85.3312 53.6297 85.1965 53.4557C85.0619 53.2818 84.9629 53.0829 84.9053 52.8705C84.8477 52.6581 84.8327 52.4364 84.861 52.2182C84.8893 51.9999 84.9605 51.7894 85.0704 51.5988C85.1803 51.4082 85.3268 51.2413 85.5014 51.1076C85.676 50.9739 85.8753 50.8761 86.0878 50.8199C86.3003 50.7636 86.5218 50.75 86.7395 50.7798C86.9573 50.8096 87.167 50.8823 87.3567 50.9936L96.0233 56C96.341 56.1837 96.5894 56.4673 96.7297 56.8067C96.8701 57.146 96.8948 57.5223 96.7998 57.8772C96.7048 58.232 96.4956 58.5455 96.2046 58.7692C95.9135 58.9928 95.5569 59.114 95.19 59.1141ZM11.6667 34.9162H1.66667C1.22464 34.9162 0.800716 34.7404 0.488155 34.4275C0.175595 34.1145 0 33.69 0 33.2474C0 32.8048 0.175595 32.3804 0.488155 32.0674C0.800716 31.7544 1.22464 31.5786 1.66667 31.5786H11.6667C12.1087 31.5786 12.5326 31.7544 12.8452 32.0674C13.1577 32.3804 13.3333 32.8048 13.3333 33.2474C13.3333 33.69 13.1577 34.1145 12.8452 34.4275C12.5326 34.7404 12.1087 34.9162 11.6667 34.9162ZM13.4683 15.7249C13.1757 15.7255 12.8881 15.6483 12.635 15.5013L3.96833 10.4948C3.58866 10.2719 3.31243 9.90775 3.19994 9.48171C3.08744 9.05567 3.14781 8.60237 3.36788 8.22073C3.58794 7.8391 3.94982 7.56011 4.37456 7.44464C4.7993 7.32918 5.2524 7.38662 5.635 7.60443L14.3017 12.6109C14.6194 12.7946 14.8677 13.0781 15.0081 13.4175C15.1485 13.7569 15.1731 14.1332 15.0781 14.488C14.9832 14.8428 14.7739 15.1564 14.4829 15.38C14.1918 15.6036 13.8352 15.7249 13.4683 15.7249ZM4.81 59.1141C4.44312 59.114 4.0865 58.9928 3.79544 58.7692C3.50439 58.5455 3.29515 58.232 3.2002 57.8772C3.10524 57.5223 3.12987 57.146 3.27026 56.8067C3.41065 56.4673 3.65895 56.1837 3.97667 56L12.6433 50.9936C12.833 50.8823 13.0427 50.8096 13.2605 50.7798C13.4782 50.75 13.6997 50.7636 13.9122 50.8199C14.1247 50.8761 14.324 50.9739 14.4986 51.1076C14.6732 51.2413 14.8197 51.4082 14.9296 51.5988C15.0395 51.7894 15.1107 51.9999 15.139 52.2182C15.1673 52.4364 15.1523 52.6581 15.0947 52.8705C15.0371 53.0829 14.9381 53.2818 14.8034 53.4557C14.6688 53.6297 14.5011 53.7752 14.31 53.884L5.64333 58.8904C5.39022 59.0375 5.10265 59.1147 4.81 59.1141Z" fill="#7D3CF3"></path></svg>